<?xml version="1.0" standalone="no"?>
<!DOCTYPE svg PUBLIC "-//W3C//DTD SVG 1.1//EN" "http://www.w3.org/Graphics/SVG/1.1/DTD/svg11.dtd" >
<svg xmlns="http://www.w3.org/2000/svg">
<metadata>
<json>
<![CDATA[
{
	"fontFamily": "julyico",
	"majorVersion": 1.5,
	"minorVersion": 3,
	"fontURL": "https://www.julyservices.com/",
	"designer": "Kibria",
	"copyright": "Copyright reserved for commercial use",
	"description": "JDS comes with its own SVG icon system and a comprehensive library, which comprises a growing number of elegant outline icons. This component injects SVGs into the site, so that they adopt color and can be styled with CSS.\nFont generated by IcoMoon.",
	"designerURL": "",
	"license": "CC BY NC ND",
	"licenseURL": "https://creativecommons.org/about/cclicenses/#by-nc-nd",
	"version": "Version 1.5",
	"fontId": "julyico",
	"psName": "julyico",
	"subFamily": "Regular",
	"fullName": "julyico"
}
]]>
</json>
</metadata>
<defs>
<font id="julyico" horiz-adv-x="1024">
<font-face units-per-em="1024" ascent="960" descent="-64" />
<missing-glyph horiz-adv-x="1024" />
<glyph unicode="&#x20;" horiz-adv-x="512" d="" />
<glyph unicode="&#xe900;" glyph-name="account-solid" data-tags="account-solid" d="M832 604.48l-320 131.52-320-131.52v-460.48h-64v-96h768v96h-64v460.48zM517.44 597.28c59.36 0 107.52-48.16 107.52-107.52s-48.16-107.52-107.52-107.52c-59.36 0-107.52 48.16-107.52 107.52s48.16 107.52 107.52 107.52zM716.96 222.24c-25.76-7.84-100.16-21.12-203.68-21.12s-178.080 13.28-203.68 21.12v19.2c0 73.12 91.2 103.84 203.68 103.84s203.68-30.72 203.68-103.84v-19.2zM908.64 707.68l-364.32 148.64c-18.88 10.24-43.2 10.24-62.24 0l-366.72-148.8c-12-6.4-19.36-15.2-19.36-27.2 0-11.84 7.040-34.72 17.76-41.12l399.36 150.72 397.12-150.56c10.72 6.4 17.76 29.28 17.76 41.12s-7.2 20.64-19.36 27.2z" />
<glyph unicode="&#xe901;" glyph-name="add-user-solid" data-tags="add-user-solid" d="M647.17 616.002c0-104.165-84.443-188.608-188.608-188.608s-188.608 84.443-188.608 188.608c0 104.165 84.443 188.608 188.608 188.608s188.608-84.443 188.608-188.608zM153.598 177.67v-51.2c53.641-18.931 184.049-29.762 282.625-34.829 47.325 0 107.774-3.642 107.774 68.358-7.997 0-15.997 25.67-15.997 72 0 48 32 56 47.997 56 29.571 61.44-24.338 77.062-62.974 77.062-211.968 0-359.424-58.368-359.424-187.392zM592 256h256v-64h-256v64zM752 352v-256h-64v256h64z" />
<glyph unicode="&#xe902;" glyph-name="alarm-warning-solid" data-tags="alarm-warning-solid" d="M553.773 864h-83.55v-124.8h83.55v124.8zM177.794 115.213v249.598c0 183.8 149.627 332.798 334.203 332.798 184.574 0 334.202-148.998 334.202-332.798v-249.598h41.776v-83.2h-751.956v83.2h41.775zM261.342 364.792h83.55c0 91.899 74.813 166.398 167.101 166.398v83.2c-138.43 0-250.651-111.749-250.651-249.598zM836.93 747.187l59.070-58.822-88.563-88.232-59.112 58.821 88.605 88.234zM187.070 747.192l-59.070-58.822 88.646-88.274 59.029 58.906-88.605 88.19z" />
<glyph unicode="&#xe903;" glyph-name="announcement-solid" data-tags="announcement-solid" d="M337.494 280.781l-76.8-20.8c0-1.6 3.2-6.4 4.8-12.8 19.2-41.6 72-164.8-17.6-188.8l20.8-76.8c145.6 38.4 115.2 139.2 83.2 251.2-4.8 16-9.6 32-14.4 48zM887.894 328.776l-44.8 164.8c0 0 17.6 57.6 3.2 110.4s-57.6 94.4-57.6 94.4l-43.2 163.201c-1.6 8-8 14.4-16 16-9.6 1.6-12.8-1.6-22.4-8l-399.987-293.050-143.637-37.875c-22.4-6.4-37.182-29.011-30.782-53.011l40.18-149.944c6.4-22.4 29.443-35.685 53.443-29.285l142.962 38.122 489.821-41.357c1.6 0 3.2 0 4.8 0 6.4 0 12.8-1.6 19.2 3.2 4.8 6.4 6.4 14.4 4.8 22.4z" />
<glyph unicode="&#xe904;" glyph-name="arrow-back-solid" data-tags="arrow-back-solid" d="M362.982 577.992v-160.003l-250.982 221.818 250.982 224.194v-166.4h211.162c186.592 0 337.856-149 337.856-332.8s-151.264-332.8-337.856-332.8h-363.349v118.85h363.349c127.558 0 210.824 102.142 210.824 213.95s-83.266 213.192-210.824 213.192h-211.162z" />
<glyph unicode="&#xe905;" glyph-name="arrow-begin-solid" data-tags="arrow-begin-solid" d="M879.998 864l-415.134-416 415.134-416v832zM144 864h144v-832h-144v832z" />
<glyph unicode="&#xe906;" glyph-name="arrow-down-solid" data-tags="arrow-down-solid" d="M830.933 704l97.067-96.866-416-415.134-416 415.134 97.067 96.866 318.933-318.27 318.933 318.27z" />
<glyph unicode="&#xe907;" glyph-name="arrow-end-solid" data-tags="arrow-end-solid" d="M144 864l415.134-416-415.134-416v832zM880 864h-144v-832h144v832z" />
<glyph unicode="&#xe908;" glyph-name="arrow-first-solid" data-tags="arrow-first-solid" d="M593.6 432l318.4-318.4-97.6-97.6-414.4 416 414.4 416 97.6-97.6-318.4-318.4zM256 848h-144v-832h144v832z" />
<glyph unicode="&#xe909;" glyph-name="arrow-last-solid" data-tags="arrow-last-solid" d="M112 766.4l97.6 97.6 414.4-416-414.4-416-97.6 97.6 318.4 318.4-318.4 318.4zM912 864h-144v-832h144v832z" />
<glyph unicode="&#xe90a;" glyph-name="arrow-left-double-solid" data-tags="arrow-left-double-solid" d="M640 448l288-307.2-88-92.8-376 400 376 400 88-92.8-288-307.2zM272 448l288-307.2-88-92.8-376 400 376 400 88-92.8-288-307.2z" />
<glyph unicode="&#xe90b;" glyph-name="arrow-left-long-solid" data-tags="arrow-left-long-solid" d="M530.906 372.374h397.094v132.365h-397.094v332.669c0 17.868-26.875 35.233-40.248 21.881l-384.635-384.010c-13.373-13.352-13.373-34.998 0-48.35l46.698-46.622v-7.931h7.944l329.994-329.458c13.373-13.352 40.248-15.691 40.248 0v329.458z" />
<glyph unicode="&#xe90c;" glyph-name="arrow-left-solid" data-tags="arrow-left-solid" d="M752 129.067l-90.811-97.067-389.189 416 389.189 416 90.811-97.067-298.378-318.933 298.378-318.933z" />
<glyph unicode="&#xe90d;" glyph-name="arrow-right-double-solid" data-tags="arrow-right-double-solid" d="M96 755.2l88 92.8 376-400-376-400-88 92.8 288 307.2-288 307.2zM464 755.2l88 92.8 376-400-376-400-88 92.8 288 307.2-288 307.2z" />
<glyph unicode="&#xe90e;" glyph-name="arrow-right-long-solid" data-tags="arrow-right-long-solid" d="M493.086 372.374h-397.094v132.365h397.094v332.668c0 17.868 26.875 35.233 40.248 21.881l384.635-384.010c13.374-13.352 13.374-34.998 0-48.35l-46.698-46.622v-7.931h-7.944l-329.994-329.458c-13.373-13.352-40.248-15.691-40.248 0v329.458z" />
<glyph unicode="&#xe90f;" glyph-name="arrow-right-solid" data-tags="arrow-right-solid" d="M272 766.933l90.811 97.067 389.189-416-389.189-416-90.811 97.067 298.378 318.933-298.378 318.933z" />
<glyph unicode="&#xe910;" glyph-name="arrow-right-top-solid" data-tags="arrow-right-top-solid" d="M579.448 397.92l311.030-308.355c14.294-14.171 36.661 12.23 36.69 36.374l0.834 694.4c0.029 24.144-19.69 43.692-44.043 43.664l-700.427-0.826c-24.353-0.029-33.034-39.998-16.758-56.134l298.318-295.751-369.091-365.917 114.357-113.373 369.091 365.917z" />
<glyph unicode="&#xe911;" glyph-name="arrow-up-solid" data-tags="arrow-up-solid" d="M193.067 208l-97.067 90.811 416 389.189 416-389.189-97.067-90.811-318.933 298.378-318.933-298.378z" />
<glyph unicode="&#xe912;" glyph-name="article-solid" data-tags="article-solid" d="M839.112 32h-654.222c-22.582 0-40.89 18.626-40.89 41.6v748.8c0 22.975 18.307 41.6 40.89 41.6h654.222c22.582 0 40.89-18.625 40.89-41.6v-748.8c0-22.974-18.307-41.6-40.89-41.6zM307.558 697.594v-166.4h163.555v166.4h-163.555zM307.558 364.8h408.89v83.2h-408.89v-83.2zM307.558 281.594v-83.2h408.89v83.2h-408.89zM552.893 572.784h163.555v83.2h-163.555v-83.2z" />
<glyph unicode="&#xe913;" glyph-name="at-solid" data-tags="at-solid" d="M511.998 32.003c-229.755 0-415.998 186.243-415.998 415.998s186.243 415.998 415.998 415.998c229.755 0 415.998-186.243 415.998-415.998s-186.243-415.998-415.998-415.998zM844.803 447.989c-0.026 150.763-101.4 282.678-247.077 321.512s-299.262-25.115-374.333-155.862c-75.068-130.746-52.866-295.626 54.115-401.856 106.979-106.232 272.011-127.277 402.227-51.291l-41.933 71.843c-97.659-56.987-221.43-41.206-301.666 38.462s-96.893 203.323-40.598 301.384c56.294 98.061 171.477 146.030 280.734 116.917 109.258-29.115 185.296-128.038 185.33-241.109v-41.6c0-22.976-18.624-41.6-41.6-41.6-22.974 0-41.598 18.624-41.598 41.6v166.398h-56.326c-67.254 59.323-169.421 54.678-231.014-10.499-61.595-65.179-60.459-167.445 2.57-231.238 63.027-63.795 165.272-66.166 231.19-5.365 33.854-39.92 89.024-54.472 138.163-36.445 49.141 18.029 81.81 64.805 81.816 117.149v41.6zM595.2 448.008c0 45.95-37.25 83.2-83.2 83.2s-83.2-37.25-83.2-83.2c0-45.95 37.25-83.2 83.2-83.2s83.2 37.25 83.2 83.2z" />
<glyph unicode="&#xe914;" glyph-name="award-solid" data-tags="award-solid" d="M702.181 318.424v-260.643c0.002-6.832-3.67-13.138-9.614-16.506s-13.24-3.28-19.101 0.232l-160.954 96.579-160.954-96.579c-5.866-3.515-13.171-3.6-19.117-0.222s-9.614 9.694-9.6 16.533v260.606c-100.59 80.538-139.352 215.818-96.674 337.405 42.677 121.587 157.485 202.964 286.344 202.964s243.667-81.377 286.344-202.964c42.677-121.587 3.917-256.867-96.675-337.405zM512.514 327.771c125.702 0 227.603 101.901 227.603 227.603s-101.901 227.603-227.603 227.603c-125.702 0-227.603-101.901-227.603-227.603s101.901-227.603 227.603-227.603zM360.774 555.355c0-83.802 67.934-151.736 151.736-151.736s151.736 67.934 151.736 151.736c0 83.802-67.934 151.736-151.736 151.736s-151.736-67.934-151.736-151.736z" />
<glyph unicode="&#xe915;" glyph-name="bank-card-solid" data-tags="bank-card-solid" d="M96.001 655.998h832v132c0 24.3-18.626 44-41.6 44h-748.8c-22.975 0-41.6-19.7-41.6-44v-132zM928.002 107.198v388.8h-832v-388.8c0-23.859 18.625-43.2 41.6-43.2h748.8c22.974 0 41.6 19.341 41.6 43.2z" />
<glyph unicode="&#xe916;" glyph-name="bar-chart-solid" data-tags="bar-chart-solid" d="M384 864h240v-832h-240v832zM96 400h224v-368h-224v368zM928 640h-240v-608h240v608z" />
<glyph unicode="&#xe917;" glyph-name="barricade-solid" data-tags="barricade-solid" d="M303.352 644.224h417.24l-30.506 185.535c-4.339 20.004-21.65 34.237-41.643 34.241h-272.899c-20.010 0.017-37.344-14.221-41.685-34.241l-30.507-185.535zM739.538 556.765l37.973-174.922h-531.034l37.931 174.922h455.13zM834.389 119.461h61.611v-87.459h-768.008v87.459h61.611l37.974 174.922h568.88l37.931-174.922z" />
<glyph unicode="&#xe918;" glyph-name="blueprint-solid" data-tags="blueprint-solid" d="M294.4 190.4h-76.8c-22.4 0-40-19.2-40-41.6s17.6-43.2 40-43.2h638.4v628.8h-481.6c-3.2 0-6.4 3.2-6.4 6.4v60.8c0 3.2 3.2 6.4 6.4 6.4h513.6c22.4 0 40-19.2 40-41.6v-692.8c0-22.4-17.6-41.6-40-41.6h-670.4c-67.2 0-121.6 56-121.6 124.8v582.4c0 68.8 54.4 124.8 121.6 124.8h76.8v-673.6zM548.8 672h-180.8v-352h180.8v352zM792 672h-180.8v-352h180.8v352zM793.6 257.594h-425.6v-89.6h425.6v89.6z" />
<glyph unicode="&#xe919;" glyph-name="bolt-solid" data-tags="bolt-solid" d="M311.326 405.43l61.503 401.282h289.367l-79.651-200.641h215.765l-361.96-554.535v52.429l75.618 332.721-200.641-31.256z" />
<glyph unicode="&#xe91a;" glyph-name="bookmark-minus-solid" data-tags="bookmark-minus-solid" d="M823.179 853.418c22.544 0 40.821-18.276 40.821-40.821v-781.446c0.010-7.434-4.022-14.285-10.526-17.883-6.502-3.6-14.45-3.381-20.742 0.574l-320.392 185.206-320.392-185.166c-6.288-3.95-14.226-4.174-20.725-0.584-6.501 3.589-10.539 10.426-10.544 17.853v781.446c0 22.545 18.275 40.821 40.821 40.821h621.68zM511.923 588.79h-156.805v-58.802l40.293-42.811c63.174-67.122 169.851-67.122 233.024 0l40.293 42.811v58.802h-156.805z" />
<glyph unicode="&#xe91b;" glyph-name="bookmark-solid" data-tags="bookmark-solid" d="M201.507 853.414h621.672c22.544 0 40.821-18.276 40.821-40.821v-781.438c0.010-7.434-4.022-14.283-10.526-17.883-6.502-3.6-14.448-3.379-20.742 0.574l-320.389 185.205-320.387-185.163c-6.288-3.95-14.226-4.174-20.726-0.586-6.499 3.59-10.538 10.427-10.544 17.853v781.438c0 22.545 18.277 40.821 40.822 40.821z" />
<glyph unicode="&#xe91c;" glyph-name="bookmark-star-solid" data-tags="bookmark-star-solid" d="M823.179 855.461c22.544 0 40.821-18.276 40.821-40.821v-781.438c0.010-7.434-4.022-14.283-10.526-17.883-6.502-3.6-14.448-3.379-20.742 0.574l-320.389 185.206-320.387-185.165c-6.288-3.95-14.226-4.174-20.726-0.584-6.499 3.589-10.538 10.426-10.544 17.851v781.438c0 22.545 18.277 40.821 40.822 40.821h621.672zM394.566 332.032l117.362 61.696 117.322-61.696-22.362 130.659 94.92 92.563-131.179 19.088-58.701 118.88-58.661-118.88-131.218-19.088 94.918-92.563-22.402-130.659z" />
<glyph unicode="&#xe91d;" glyph-name="book-open-solid" data-tags="book-open-solid" d="M127.949 860.926c58.272 0.009 183.971 0.023 272.623-0.006 1.717 0 3.414 0.003 5.094 0.006 34.645 0.070 61.622 0.125 97.048-35.3 37.144-37.143 27.858-120.713 27.858-120.713v-594.285h-402.571c-17.673 0-32 14.326-32 32v686.298c0 17.671 14.279 31.996 31.949 31.999zM196.286 649.198h204.285v74.285h-204.285v-74.285zM400.571 482.054v74.286h-204.285v-74.286h204.285zM196.286 296.341h204.285v74.286h-204.285v-74.286zM928 832c0 17.673-14.296 32-31.968 32-51.726 0-156.149 0.001-237.16 0-42.472 0-74.758-7.452-102.792-35.373-30.453-30.328-28.035-74.456-28.035-74.456v-642.171h367.955c17.674 0 32 14.326 32 32v688zM208 112v-32h64v32h-64z" />
<glyph unicode="&#xe91e;" glyph-name="book-solid" data-tags="book-solid" d="M266.667 198.136h613.331v665.864h-654.221c-45.165 0-81.778-37.191-81.778-83.069v-624.33c0-68.816 54.92-124.602 122.667-124.602h613.331v83.067h-613.331c-22.582 0-40.89 18.597-40.89 41.534 0 22.939 18.307 41.534 40.89 41.534zM730.36 655.010v-83.067h-327.11v83.067h327.11z" />
<glyph unicode="&#xe91f;" glyph-name="briefcase-solid" data-tags="briefcase-solid" d="M304.008 686.709v102.813c0 23.46 18.626 42.478 41.6 42.478h332.795c22.974 0 41.598-19.018 41.598-42.478v-102.813h166.398c22.974 0 41.598-19.018 41.598-42.478v-199.574h-355.224v55.896h-119.166v-55.896h-357.596v199.574c0 23.461 18.625 42.478 41.599 42.478h166.397zM453.597 357.29v-40.259h119.165v40.259h355.226v-282.814c0-23.461-18.624-42.478-41.598-42.478h-748.789c-22.975 0-41.599 19.018-41.599 42.478v282.814h357.597zM387.493 684.312v62.96h249.003v-62.96h-249.003z" />
<glyph unicode="&#xe920;" glyph-name="brush-solid" data-tags="brush-solid" d="M777.728 858.652l-210.73-163.882c-168.406 41.514-329.856-56.918-374.998-225.451-4.344-16.206-5.701-32.67-7.122-49.912-4.901-59.472-10.563-128.189-142.211-227.421 106.667-64 298.667-128.086 448.085-128.086 98.302 0.082 191.122 45.309 251.763 122.678s82.386 178.306 58.979 273.781l163.84 210.688c13.211 16.982 11.712 41.146-3.499 56.363l-127.787 127.744c-15.211 15.186-39.346 16.685-56.32 3.499zM720.862 606.331c-2.688 2.816-5.461 5.589-8.235 8.277l-48 48 135.766 105.6 74.496-74.496-105.6-135.765-48.427 48.384z" />
<glyph unicode="&#xe921;" glyph-name="bug-solid" data-tags="bug-solid" d="M512.003 864c-91.901 0-166.402-74.763-166.402-166.987h332.803c0 92.224-74.501 166.987-166.402 166.987zM273.002 613.531c-2.866-4.102-5.626-8.278-8.278-12.523l-84.032 48.677-41.601-72.306 92.062-53.354c-6.739-24.672-10.358-50.638-10.358-77.482v-41.747h-124.801v-83.493h124.801c-0.048-38.558 7.531-76.744 22.298-112.341l-104.001-60.24 41.601-72.306 105.082 60.866c46.12-57.189 112.059-94.792 184.622-105.285v331.053h83.202v-331.011c72.557 10.482 138.496 48.070 184.622 105.243l105.083-60.866 41.6 72.306-104.002 60.282c14.394 34.566 22.298 72.514 22.298 112.299h124.802v83.493h-124.802v41.747c0 26.843-3.619 52.851-10.358 77.482l92.062 53.354-41.6 72.306-84.034-48.677c-2.662 4.216-5.408 8.432-8.278 12.523h-477.989z" />
<glyph unicode="&#xe922;" glyph-name="building-solid" data-tags="building-solid" d="M852.363 137.261h75.637v-75.635h-831.999v75.635h75.636v642.909c0 20.887 16.933 37.819 37.819 37.819h605.090c20.886 0 37.818-16.932 37.818-37.819v-642.909zM352.002 479.997v-80h128v80h-128zM352.002 559.997h128v64h-128v-64zM352.002 319.997v-64h128v64h-128zM544.002 255.997h128v64h-128v-64zM544.002 479.997v-80h128v80h-128zM544.002 559.997h128v64h-128v-64z" />
<glyph unicode="&#xe923;" glyph-name="calculate-solid" data-tags="calculate-solid" d="M886.4 832h-748.8c-23.040 0-41.6-19.040-41.6-42.72v-682.72c0-23.52 18.56-42.56 41.6-42.56h748.8c23.040 0 41.6 19.040 41.6 42.72v682.56c0 23.68-18.56 42.72-41.6 42.72zM470.4 405.28h-83.2v-85.28h-83.2v85.28h-83.2v85.28h83.2v85.44h83.2v-85.28h83.2v-85.44zM803.2 405.28h-249.6v85.28h249.6v-85.28z" />
<glyph unicode="&#xe924;" glyph-name="calendar-solid" data-tags="calendar-solid" d="M886.398 784h-166.398v80h-64v-80h-288v80h-64v-80h-166.4c-22.975 0-41.6-18.626-41.6-41.6v-211.2h831.998v211.2c0 22.974-18.626 41.6-41.6 41.6zM927.998 438.749h-831.998v-366.078c0-22.466 18.625-40.677 41.6-40.677h748.798c22.974 0 41.6 18.211 41.6 40.677v366.078z" />
<glyph unicode="&#xe925;" glyph-name="carrot-down-solid" data-tags="carrot-down-solid" d="M106.909 656c242.981 0 572.286 0 794.483 0 17.869 0 35.232-27.683 21.882-41.459l-384.008-396.21c-13.35-13.774-34.998-13.774-48.35 0l-384.006 396.21c-13.352 13.776-15.692 41.459 0 41.459z" />
<glyph unicode="&#xe926;" glyph-name="carrot-first-solid" data-tags="carrot-first-solid" d="M928 58.608v794.483c0 15.692-26.694 13.352-39.978 0l-360.022-361.857v361.857c0 15.692-26.694 13.352-39.978 0l-382.060-384.006c-13.284-13.352-13.284-35 0-48.35l382.060-384.008c13.283-13.35 39.978 4.013 39.978 21.882v339.976l360.022-361.858c13.283-13.35 39.978 4.013 39.978 21.882z" />
<glyph unicode="&#xe927;" glyph-name="carrot-last-solid" data-tags="carrot-last-solid" d="M96 58.608v794.483c0 15.692 26.694 13.352 39.978 0l360.022-361.857v361.857c0 15.692 26.694 13.352 39.978 0l382.059-384.006c13.285-13.352 13.285-35 0-48.35l-382.059-384.008c-13.283-13.35-39.978 4.013-39.978 21.882v339.976l-360.022-361.858c-13.284-13.35-39.978 4.013-39.978 21.882z" />
<glyph unicode="&#xe928;" glyph-name="carrot-left-solid" data-tags="carrot-left-solid" d="M720 852.818c0-242.846 0-571.966 0-794.042 0-17.574-25.6-35.149-38.4-22.368l-368 383.442c-12.8 12.781-12.8 35.149 0 47.93l368 383.441c12.8 15.977 38.4 17.574 38.4 1.598z" />
<glyph unicode="&#xe929;" glyph-name="carrot-right-solid" data-tags="carrot-right-solid" d="M342.4 852.592l368-384c12.8-12.8 12.8-35.2 0-48l-368-384c-12.8-12.8-38.4 3.2-38.4 22.4 0 222.4 0 550.4 0 793.6 0 16 25.6 14.4 38.4 0z" />
<glyph unicode="&#xe92a;" glyph-name="carrot-up-down-solid" data-tags="carrot-up-down-solid" d="M153.65 416c214.945 0 506.254 0 702.812 0 15.806 0 31.166-23.728 19.357-35.536l-339.699-339.608c-11.811-11.808-30.96-11.808-42.771 0l-339.699 339.608c-11.811 11.808-13.881 35.536 0 35.536zM870.35 480c-214.946 0-506.254 0-702.813 0-15.806 0-31.167 23.728-19.356 35.536l339.699 339.608c11.811 11.808 30.96 11.808 42.771 0l339.699-339.608c11.811-11.808 13.88-35.536 0-35.536z" />
<glyph unicode="&#xe92b;" glyph-name="carrot-up-solid" data-tags="carrot-up-solid" d="M917.091 224c-242.981 0-572.286 0-794.484 0-17.868 0-35.232 27.683-21.881 41.459l384.008 396.21c13.35 13.774 34.998 13.774 48.35 0l384.006-396.21c13.352-13.776 15.691-41.459 0-41.459z" />
<glyph unicode="&#xe92c;" glyph-name="certificate-solid" data-tags="certificate-solid" d="M538.861 774.496c-12.611 19.485-41.118 19.485-53.728 0l-62.176-96.064c-7.218-11.152-20.576-16.685-33.565-13.904l-111.893 23.965c-22.694 4.859-42.851-15.298-37.992-37.992l23.965-111.893c2.781-12.989-2.752-26.347-13.904-33.565l-96.064-62.176c-19.484-12.61-19.484-41.117 0-53.728l96.064-62.174c11.152-7.218 16.685-20.576 13.904-33.566l-23.965-111.891c-4.859-22.694 15.298-42.853 37.992-37.992l111.893 23.963c12.989 2.782 26.347-2.75 33.565-13.904l62.176-96.064c12.61-19.483 41.117-19.483 53.728 0l62.174 96.064c7.218 11.154 20.576 16.686 33.566 13.904l111.891-23.963c22.694-4.861 42.853 15.298 37.992 37.992l-23.963 111.891c-2.782 12.99 2.75 26.349 13.904 33.566l96.064 62.174c19.483 12.611 19.483 41.118 0 53.728l-96.064 62.176c-11.154 7.218-16.686 20.576-13.904 33.565l23.963 111.893c4.861 22.694-15.298 42.851-37.992 37.992l-111.891-23.965c-12.99-2.781-26.349 2.752-33.566 13.904l-62.174 96.064zM512 320c53.019 0 96 42.981 96 96s-42.981 96-96 96c-53.019 0-96-42.981-96-96s42.981-96 96-96z" />
<glyph unicode="&#xe92d;" glyph-name="chart-customize-solid" data-tags="chart-customize-solid" d="M483.648 479.35l72.773 384.646c222.667-32.311 386.179-231.372 370.549-459.551-6.699 2.136-443.322 74.906-443.322 74.906zM105.261 517.904c-45.674-211.574 81.904-420.219 287.421-478.136 0 0 3.651 366.52 0 430.494l57.171 365.709c-165.626-22.029-307.302-145.331-344.592-318.067zM465.453 34.034v391.645l436.622-72.771c-41.397-181.184-202.138-320.91-395.872-320.91-13.733 0-27.344 0.693-40.75 2.037zM860.437 482.477l-308.842 51.626 50.939 254.062c136.018-45.275 236.070-163.326 257.902-305.688z" />
<glyph unicode="&#xe92e;" glyph-name="chat-solid" data-tags="chat-solid" d="M281.328 191.59l-185.328-143.59v758.974c0 22.658 18.625 41.026 41.6 41.026h748.8c22.974 0 41.6-18.368 41.6-41.026v-574.358c0-22.659-18.626-41.026-41.6-41.026h-605.072z" />
<glyph unicode="&#xe92f;" glyph-name="circle-album-solid" data-tags="circle-album-solid" d="M512 897.422c-248.415 0-449.422-201.007-449.422-449.422s201.007-449.422 449.422-449.422 449.422 201.007 449.422 449.422-201.007 449.422-449.422 449.422zM512 144.593c-168.77 0-303.407 136.533-303.407 303.407s136.533 303.407 303.407 303.407 303.407-136.533 303.407-303.407-134.637-303.407-303.407-303.407zM659.911 448c0-81.689-66.222-147.911-147.911-147.911s-147.911 66.222-147.911 147.911c0 81.689 66.222 147.911 147.911 147.911s147.911-66.222 147.911-147.911z" />
<glyph unicode="&#xe930;" glyph-name="clipboard-solid" data-tags="clipboard-solid" d="M805.333 769.84h-97.778v-97.995h-391.11v97.995h-97.778c-33.245 0-58.667-24.979-58.667-57.645v-622.558c0-32.664 25.422-57.643 58.667-57.643h586.666c33.245 0 58.667 24.979 58.667 57.643v622.558c0 32.666-25.422 57.645-58.667 57.645zM648.89 769.848v55.722c0 21.136-17.6 38.43-39.112 38.43h-195.555c-21.51 0-39.11-17.293-39.11-38.43v-96.074h273.778v40.352z" />
<glyph unicode="&#xe931;" glyph-name="clise-solid" data-tags="clise-solid" d="M912 129.067l-93.838-97.067-402.162 416 402.162 416 93.838-97.067-308.325-318.933 308.325-318.933zM112 766.933l93.838 97.067 402.162-416-402.162-416-93.838 97.067 308.325 318.933-308.325 318.933z" />
<glyph unicode="&#xe932;" glyph-name="clock-alram-solid" data-tags="clock-alram-solid" d="M899.23 447.408c0 213.861-173.368 387.229-387.229 387.229s-387.229-173.368-387.229-387.229c0-213.861 173.368-387.229 387.229-387.229s387.229 173.368 387.229 387.229zM512 723.994h69.147v-345.741h-293.878v69.149h224.731v276.592zM667.109 842.151c111.717-39.304 199.976-128.393 238.147-240.638 14.478 25.56 22.742 55.101 22.742 86.574 0 97.154-78.758 175.912-175.912 175.912-30.819 0-59.787-7.925-84.978-21.849zM356.891 842.151c-111.717-39.304-199.976-128.393-238.147-240.637-14.478 25.56-22.743 55.101-22.743 86.574 0 97.154 78.759 175.912 175.912 175.912 30.819 0 59.787-7.925 84.978-21.849zM313.069 60.37l-2.661 28.208c-13.766-1.662-23.734-15.64-22.264-31.219 1.469-15.576 13.818-26.856 27.581-25.197l0.088 0.011 0.438 0.050c0.411 0.046 1.062 0.117 1.96 0.21 1.792 0.187 4.562 0.459 8.346 0.789 7.568 0.661 19.19 1.552 35.16 2.448 31.939 1.79 81.258 3.595 150.283 3.595s118.344-1.805 150.283-3.595c15.97-0.896 27.592-1.787 35.16-2.448 3.784-0.33 6.554-0.602 8.346-0.789 0.898-0.093 1.549-0.163 1.96-0.21l0.522-0.059c0 0 0 0 0 0 13.76-1.656 26.117 9.622 27.586 25.195 1.47 15.579-8.498 29.557-22.264 31.219l-2.661-28.208c2.661 28.208 2.664 28.208 2.661 28.208l-0.091 0.011-0.806 0.093c-0.536 0.059-1.31 0.144-2.33 0.25-2.037 0.211-5.048 0.507-9.069 0.858-8.040 0.701-20.122 1.626-36.531 2.546-32.821 1.84-82.968 3.666-152.765 3.666s-119.944-1.826-152.765-3.666c-16.41-0.92-28.491-1.845-36.531-2.546-4.021-0.35-7.032-0.646-9.069-0.858-1.019-0.106-1.794-0.19-2.33-0.25l-0.898-0.104c-0.003 0 0 0 2.661-28.208z" />
<glyph unicode="&#xe933;" glyph-name="clock-solid" data-tags="clock-solid" d="M927.997 448.002c0 229.749-186.248 415.998-415.998 415.998-229.749 0-415.998-186.25-415.998-415.998 0-229.75 186.25-415.998 415.998-415.998 229.75 0 415.998 186.248 415.998 415.998zM512 745.141h74.285v-371.427h-315.712v74.285h241.427v297.142z" />
<glyph unicode="&#xe934;" glyph-name="cloud-check-solid" data-tags="cloud-check-solid" d="M719.931 176h-450.55c-43.682-0.022-85.762 16.613-117.816 46.576-32.054 29.965-51.719 71.046-55.057 115.024s9.896 87.606 37.054 122.154c27.157 34.546 66.236 57.462 109.41 64.162 13.459 54.381 42.774 103.43 84.154 140.798 41.378 37.368 92.914 61.334 147.933 68.795 55.021 7.461 110.992-1.926 160.669-26.949 49.675-25.021 90.77-64.523 117.96-113.392 51.554-8.531 98.037-36.342 130.208-77.902s47.669-93.824 43.414-146.397c-4.253-52.574-27.949-101.603-66.374-137.341-38.424-35.736-88.763-55.56-141.003-55.528zM354.709 413.602l121.336-122.445 208.259 210.28-48.869 49.342-159.424-160.974-72.435 73.139-48.867-49.342z" />
<glyph unicode="&#xe935;" glyph-name="cloud-close-solid" data-tags="cloud-close-solid" d="M719.987 160c52.226-0.032 102.55 20.358 140.965 57.114 38.414 36.757 62.104 87.187 66.357 141.261 4.253 54.075-11.242 107.83-43.403 150.578s-78.632 71.352-130.171 80.128c-27.181 50.264-68.261 90.896-117.922 116.634s-105.614 35.397-160.619 27.726c-55.005-7.67-106.526-32.315-147.894-70.747-41.37-38.43-70.682-88.877-84.141-144.81-43.211-6.835-82.338-30.387-109.536-65.934s-40.456-80.459-37.116-125.733c3.34-45.275 23.031-87.565 55.125-118.39s74.219-47.909 117.93-47.826h450.426zM650.688 339.974l-48.994-50.894-79.413 82.533-79.483-82.498-48.992 50.859 79.448 82.533-79.448 82.534 48.992 50.894 79.448-82.498 79.448 82.498 48.994-50.894-79.448-82.534 79.448-82.533z" />
<glyph unicode="&#xe936;" glyph-name="cloud-crack-solid" data-tags="cloud-crack-solid" d="M701.136 591.802c-126.102 0.010-238.992-66.138-283.317-166.006l70.858-22.486c38.622 86.771 145.034 137.792 252.877 121.248 107.843-16.542 186.301-95.923 186.446-188.642 0-105.992-101.571-191.915-226.864-191.915h-378.107c-110.608-0.059-205.143 67.368-223.768 159.6-18.625 92.23 44.091 182.381 148.448 213.387-6.707 114.434 89.787 214.686 223.613 232.322 133.824 17.635 261.794-53.038 296.55-163.776-21.904 4.171-44.285 6.274-66.736 6.269v0z" />
<glyph unicode="&#xe937;" glyph-name="cloud-down-solid" data-tags="cloud-down-solid" d="M719.93 176h-450.549c-43.683-0.022-85.762 16.613-117.817 46.576-32.054 29.965-51.719 71.046-55.057 115.024s9.896 87.606 37.054 122.154c27.158 34.546 66.235 57.462 109.411 64.162 13.458 54.381 42.774 103.43 84.152 140.798 41.379 37.368 92.914 61.334 147.934 68.795s110.992-1.926 160.667-26.949c49.677-25.021 90.771-64.523 117.962-113.392 51.554-8.531 98.037-36.342 130.208-77.902s47.669-93.824 43.414-146.397c-4.254-52.574-27.95-101.603-66.374-137.341-38.426-35.736-88.763-55.56-141.005-55.528zM562.235 544.445h-100.507v-104.982h-88.378l138.632-139.978 138.63 139.978h-88.378v104.982z" />
<glyph unicode="&#xe938;" glyph-name="cloud-off-solid" data-tags="cloud-off-solid" d="M270.379 112l68.28 66.898h381.258c52.245-0.030 102.586 19.197 141.013 53.856 38.427 34.661 62.125 82.214 66.379 133.205s-11.246 101.68-43.418 141.989c-32.173 40.309-78.659 67.283-130.216 75.557l-0.658 1.154 105.539 103.35-49.045 47.992-588.178-575.974 49.045-48.026zM172.291 207.95c179.253 175.413 347.174 340.154 484.234 474.186-37.125 22.219-79.067 35.571-122.437 38.978s-86.949-3.23-127.214-19.371c-40.266-16.141-76.086-41.336-104.568-73.544-28.48-32.21-48.821-70.53-59.378-111.862-34.438-5.192-66.478-20.43-91.939-43.725s-43.16-53.563-50.786-86.858c-7.627-33.293-4.828-68.066 8.032-99.778s35.183-58.891 64.057-77.992v-0.034z" />
<glyph unicode="&#xe939;" glyph-name="cloud-solid" data-tags="cloud-solid" d="M269.56 175.995h450.426c52.227-0.032 102.552 19.792 140.966 55.526 38.414 35.736 62.104 84.765 66.357 137.338 4.253 52.571-11.243 104.835-43.405 146.394-32.16 41.56-78.632 69.371-130.171 77.902-27.181 48.867-68.261 88.371-117.92 113.394-49.661 25.022-105.616 34.413-160.619 26.957-55.005-7.458-106.526-31.418-147.896-68.782s-70.68-86.408-84.139-140.786c-43.213-6.646-82.339-29.546-109.537-64.104s-40.456-78.224-37.116-122.24c3.34-44.018 23.031-85.133 55.125-115.102s74.219-46.578 117.929-46.496z" />
<glyph unicode="&#xe93a;" glyph-name="cloud-up-solid" data-tags="cloud-up-solid" d="M719.93 176h-450.549c-43.683-0.022-85.762 16.613-117.817 46.576-32.054 29.965-51.719 71.046-55.057 115.024s9.896 87.606 37.054 122.154c27.158 34.546 66.235 57.462 109.411 64.162 13.458 54.381 42.774 103.43 84.152 140.798 41.379 37.368 92.914 61.334 147.934 68.795s110.992-1.926 160.667-26.949c49.677-25.021 90.771-64.523 117.962-113.392 51.554-8.531 98.037-36.342 130.208-77.902s47.669-93.824 43.414-146.397c-4.254-52.574-27.95-101.603-66.374-137.341-38.426-35.736-88.763-55.56-141.005-55.528zM461.73 332.469h100.507v104.984h88.376l-138.63 139.978-138.63-139.978h88.378v-104.984z" />
<glyph unicode="&#xe93b;" glyph-name="code-solid" data-tags="code-solid" d="M890.72 832h-768c-23.68 0-42.72-19.040-42.72-42.72v-682.72c0-23.52 19.040-42.56 42.72-42.56h768c23.52 0 42.72 19.040 42.72 42.72v682.56c-0.16 23.68-19.2 42.72-42.72 42.72zM376.48 357.6l-60.32-60.48-150.88 150.88 150.88 150.88 60.32-60.32-90.56-90.56 90.56-90.4zM474.4 234.72h-90.72l155.36 426.72h90.72l-155.36-426.72zM697.12 297.12l-60.32 60.32 90.56 90.56-90.56 90.4 60.32 60.48 150.88-150.88-150.88-150.88z" />
<glyph unicode="&#xe93c;" glyph-name="collapse-around-solid" data-tags="collapse-around-solid" d="M642.667 484.717l-75.395-0.091c-10.888-0.013-19.702 9.011-19.69 20.157l0.373 320.564c0.013 11.146 10.011 23.334 16.402 16.792l128.474-131.525 149.83 153.387 85.339-87.366-149.829-153.387 109.72-112.326c7.275-7.448 3.395-25.899-7.491-25.914l-237.733-0.29zM330.63 184.842l119.251-122.083c6.39-6.541 16.389 5.646 16.402 16.792l0.285 244.456 0.010 0.010-0.010 0.011 0.088 76.086c0.013 11.146-8.802 20.171-19.69 20.157l-313.128-0.381c-10.887-0.013-14.768-18.464-7.492-25.914l118.944-121.768-149.292-152.838 85.34-87.365 149.291 152.837zM688.485 189.838l-124.131-127.080c-6.39-6.541-16.39 5.646-16.403 16.792l-0.373 320.563c-0.013 11.146 8.803 20.171 19.69 20.157l313.128-0.381c10.888-0.013 14.768-18.464 7.493-25.914l-114.064-116.771 154.173-157.834-85.339-87.366-154.173 157.834zM466.558 572.069l0.078-0.082-0.078-0.080 0.078-67.125c0.013-11.146-8.802-20.17-19.69-20.157l-65.568 0.080-0.082-0.085-0.082 0.085-247.396 0.301c-10.887 0.014-14.768 18.466-7.492 25.914l114.64 117.363-144.909 148.35 85.34 87.366 144.909-148.35 123.555 126.488c6.39 6.542 16.389-5.646 16.402-16.792l0.294-253.277z" />
<glyph unicode="&#xe93d;" glyph-name="community-building-solid" data-tags="community-building-solid" d="M886.4 816h-582.4c-23.040 0-41.6-18.56-41.6-41.6v-188.96l-152.16-132.64c-8.96-8-14.24-19.36-14.24-31.52v-312.48c0-23.040 18.56-41.6 41.6-41.6h748.8c23.040 0 41.6 18.56 41.6 41.6v665.6c0 23.040-18.56 41.6-41.6 41.6zM512 150.4h-124.8v166.4h-83.2v-166.4h-124.8v252l166.4 145.12 166.4-145.12v-252zM595.2 566.4h-83.2v83.2h83.2v-83.2zM761.6 233.6h-83.2v83.2h83.2v-83.2zM761.6 400h-83.2v83.2h83.2v-83.2zM761.6 566.4h-83.2v83.2h83.2v-83.2z" />
<glyph unicode="&#xe93e;" glyph-name="community-solid" data-tags="community-solid" d="M647.17 616.002c0-104.165-84.443-188.608-188.608-188.608s-188.608 84.443-188.608 188.608c0 104.165 84.443 188.608 188.608 188.608s188.608-84.443 188.608-188.608zM153.598 177.67v-51.2c53.641-18.931 184.049-29.762 282.625-34.829 5.286 0-44.222 100.358 75.778 156.358 64 16 39.659 117.062 1.022 117.062-211.968 0-359.424-58.368-359.424-187.392zM870.4 139.227v-30.218c-24.237-7.466-94.422-19.942-192.091-19.942s-167.854 12.477-192.093 19.942l0.002 30.218c0 68.949 86.002 97.979 192.091 97.979s192.091-29.030 192.091-97.979zM795.973 371.486c0-55.83-45.258-101.088-101.088-101.088s-101.088 45.258-101.088 101.088c0 55.829 45.259 101.088 101.088 101.088 55.83 0 101.088-45.259 101.088-101.088z" />
<glyph unicode="&#xe93f;" glyph-name="company-solid" data-tags="company-solid" d="M124.8 624h777.6c11.2 6.4 25.6 25.6 25.6 36.8s-8 19.2-19.2 25.6l-364.8 139.201c-19.2 9.6-43.2 9.6-62.4 0l-366.4-139.201c-11.2-6.4-19.2-14.4-19.2-25.6s17.6-30.4 28.8-36.8zM846.4 464h33.6v96h-736v-96h33.6v-336h-81.6v-80h832v80h-81.6v336zM270.4 128v336h185.6v-336h-185.6zM568 128v336h185.6v-336h-185.6zM672 400h-32v-192h32v192zM384 400h-32v-192h32v192z" />
<glyph unicode="&#xe940;" glyph-name="compass-solid" data-tags="compass-solid" d="M512 32c229.757 0 416 186.243 416 416s-186.243 416-416 416c-229.757 0-416-186.243-416-416s186.243-416 416-416zM699.203 635.208c0 0-63.944-230.346-104-270.4-40.054-40.054-270.4-104-270.4-104s73.098 239.498 104 270.4c30.904 30.902 270.4 104 270.4 104zM470.402 448.005c0 22.974 18.626 41.6 41.6 41.6 22.976 0 41.6-18.626 41.6-41.6s-18.624-41.6-41.6-41.6c-22.974 0-41.6 18.626-41.6 41.6z" />
<glyph unicode="&#xe941;" glyph-name="configuration-solid" data-tags="configuration-solid" d="M455.274 464.005v113.453h472.726v113.454h-472.726v113.456h-245.818v-340.363h245.818zM455.274 690.912h-0.002v-113.454h0.002v113.454zM209.453 690.912v-113.454h-113.454v113.454h113.454zM95.999 205.085v113.456h472.728v-113.456h-472.728zM814.546 318.541v-113.456h0.002v-113.456h-245.818v340.365h245.818v-113.453h-0.002zM814.547 318.541h113.453v-113.456h-113.453v113.456z" />
<glyph unicode="&#xe942;" glyph-name="confused-solid" data-tags="confused-solid" d="M512 864c-229.76 0-416-186.24-416-416s186.24-416 416-416c229.76 0 416 186.24 416 416s-186.24 416-416 416zM303.68 510.72c0 34.4 28 62.4 62.4 62.4s62.4-28 62.4-62.4c0-34.4-28-62.4-62.4-62.4s-62.4 27.84-62.4 62.4zM679.040 238.56h-334.080v84.8h334.24v-84.8h-0.16zM658.24 448.32c-34.4 0-62.4 28-62.4 62.4s28 62.4 62.4 62.4c34.4 0 62.4-28 62.4-62.4s-28-62.4-62.4-62.4z" />
<glyph unicode="&#xe943;" glyph-name="contacts-solid" data-tags="contacts-solid" d="M801.28 736h-501.76c-59.36 0-107.52-48.16-107.52-107.52v-501.76c0-59.36 48.16-107.52 107.52-107.52h501.76c19.84 0 35.84 16 35.84 35.84v645.12c0 19.84-16 35.84-35.84 35.84zM518.72 585.92c43.84 0 79.52-35.52 79.52-79.52 0-43.84-35.52-79.52-79.52-79.52-43.84 0-79.52 35.52-79.52 79.52 0.16 44 35.68 79.52 79.52 79.52zM363.040 320.64c0 54.72 68.32 77.76 152.64 77.76s152.64-23.040 152.64-77.76v-14.4c-19.2-5.92-75.040-15.84-152.64-15.84s-133.28 9.92-152.64 15.84v14.4zM765.44 90.88h-465.92c-19.84 0-35.84 16-35.84 35.84s16 35.84 35.84 35.84h465.92v-71.68z" />
<glyph unicode="&#xe944;" glyph-name="copy-solid" data-tags="copy-solid" d="M288.781 679.112h-120.186c-22.389 0-40.477-11.053-40.477-33.97l-0.118-571.629c0.011-11.056 4.288-21.653 11.884-29.445s17.887-12.134 28.592-12.069h492.027c22.389 0 40.477 18.598 40.477 41.514l-0.003 106.398h138.827c22.198 0 40.195 18.586 40.195 41.514v601.061c0 22.927-15.418 41.514-37.618 41.514h-513.406c-22.198 0-40.195-18.586-40.195-41.514v-143.374zM235.64 568.186h375.829v-73.955h-375.941l0.112 73.955zM235.528 346.323l0.112 73.957h375.829v-73.957h-375.941zM235.64 272.373h375.829v-73.955h-375.941l0.112 73.955zM700.981 679.106h-340.138v110.933h447.549v-536.178h-107.411v425.245z" />
<glyph unicode="&#xe945;" glyph-name="countdown-solid" data-tags="countdown-solid" d="M512.002 32c-203.238 0-367.998 163.861-367.998 365.992 0 202.133 164.759 365.994 367.998 365.994s367.998-163.861 367.998-365.994c0-202.131-164.758-365.992-367.998-365.992zM692.714 452.374h-129.374v193.966l-215.624-280.078h129.374v-193.75l215.624 279.862zM802.795 738.875l59.478-59.153-59.478-59.153-59.478 59.153 59.478 59.153zM222.408 738.875l-59.478-59.153 59.478-59.153 59.478 59.153-59.478 59.153zM672 864h-320v-80h320v80z" />
<glyph unicode="&#xe946;" glyph-name="cross-box-solid" data-tags="cross-box-solid" d="M927.997 73.27c-0.202-22.733-20.64-41.109-45.899-41.267h-740.199c-25.331 0-45.873 18.469-45.899 41.267v749.463c0.201 22.732 20.641 41.109 45.899 41.267h740.199c25.331 0 45.899-18.47 45.899-41.267v-749.463zM377.73 649.922l-67.621-67.619 134.581-134.581-134.282-134.282 67.024-67.024 134.282 134.282 134.573-134.573 67.621 67.619-134.574 134.574 134.277 134.275-67.024 67.024-134.275-134.277-134.581 134.581z" />
<glyph unicode="&#xe947;" glyph-name="cross-circle-solid" data-tags="cross-circle-solid" d="M96 448.002c0 229.755 186.243 415.998 415.998 415.998s415.998-186.243 415.998-415.998c0-229.755-186.243-415.998-415.998-415.998s-415.998 186.243-415.998 415.998zM377.73 649.922l-67.621-67.619 134.581-134.581-134.282-134.282 67.024-67.024 134.282 134.282 134.573-134.573 67.621 67.619-134.574 134.574 134.277 134.275-67.024 67.024-134.275-134.277-134.581 134.581z" />
<glyph unicode="&#xe948;" glyph-name="crown-solid" data-tags="crown-solid" d="M321.258 576.462l-160.222 106.814c-12.376 8.23-28.405 8.525-41.074 0.754-12.669-7.773-19.671-22.194-17.942-36.957l62.678-532.854c2.262-19.206 18.541-33.682 37.882-33.685h618.84c19.341 0.003 35.619 14.478 37.882 33.685l62.677 532.818c1.747 14.768-5.248 29.205-17.92 36.987-12.674 7.782-28.714 7.491-41.094-0.747l-160.222-106.814-159.69 223.548c-7.16 10.034-18.726 15.989-31.053 15.989-12.325 0-23.893-5.956-31.053-15.989l-159.688-223.548zM420.427 393.022c0-50.573 40.998-91.571 91.573-91.571 50.573 0 91.571 40.998 91.571 91.571s-40.998 91.571-91.571 91.571c-50.574 0-91.573-40.997-91.573-91.571z" />
<glyph unicode="&#xe949;" glyph-name="cup-solid" data-tags="cup-solid" d="M844.798 822.404h-624.003c-22.974 0-41.6-18.625-41.6-41.6v-374.403c0-91.901 74.501-166.4 166.402-166.4h249.602c91.899 0 166.4 74.499 166.4 166.4v101.029h83.2c45.95 0 83.202 37.251 83.202 83.202v148.571c0 45.95-37.251 83.201-83.202 83.201zM679.144 745.144v-55.715h-427.146v55.715h427.146zM761.6 745.144v-161.646h90.333v161.646h-90.333zM844.8 156.803h-748.805v-83.2h748.805v83.2z" />
<glyph unicode="&#xe94a;" glyph-name="currency-boxes-solid" data-tags="currency-boxes-solid" d="M717.381 198.4v-124.8c0-22.963-18.426-41.6-41.234-41.6h-490.914c-10.906-0.066-21.389 4.286-29.127 12.094-7.739 7.806-12.096 18.426-12.106 29.506l0.123 582.4c0 22.963 18.426 41.6 41.234 41.6h122.554v124.8c0 22.975 18.333 41.6 40.947 41.6h490.194c22.614 0 40.947-18.625 40.947-41.6v-582.4c0-22.974-18.333-41.6-40.947-41.6h-121.67zM717.376 274.475h88.914v513.462h-423.509v-90.331h334.595v-423.131zM491 281.613h-184.261v-83.2h81.893v-41.6h81.894v41.6h20.474c56.536 0 102.366 46.562 102.366 104s-45.83 104-102.366 104h-122.842c-11.307 0-20.472 9.312-20.472 20.8s9.165 20.8 20.472 20.8h184.262v83.2h-81.894v41.6h-81.894v-41.6h-20.474c-56.534 0-102.366-46.563-102.366-104s45.832-104 102.366-104h122.842c11.307 0 20.474-9.312 20.474-20.8s-9.166-20.8-20.474-20.8z" />
<glyph unicode="&#xe94b;" glyph-name="cut-solid" data-tags="cut-solid" d="M514.848 535.782l-96.597 95.982c31.162 72.986 5.88 157.669-60.301 201.988-66.182 44.319-159.469 40.578-215.911-15.48s-60.208-148.71-15.586-214.441c44.623-65.733 129.885-90.842 203.372-59.893l96.638-95.939-96.638-95.939c-73.486 30.949-158.749 5.84-203.372-59.893-44.623-65.731-40.856-158.384 15.586-214.442s149.728-59.798 215.911-15.48c66.181 44.32 91.462 129.003 60.301 201.99l509.749 506.24-29.475 29.275c-32.115 31.91-85.826 31.91-117.942 0l-265.734-263.97zM352.848 696.427c0-48.35-39.464-87.546-88.146-87.546s-88.146 39.195-88.146 87.546c0 48.35 21.597 88.73 70.278 88.73s106.013-40.379 106.013-88.73zM245.645 114.384c48.68 0 107.203 36.829 107.203 85.179s-39.464 87.546-88.146 87.546c-48.682 0-88.146-39.195-88.146-87.546s20.406-85.179 69.088-85.179zM928 125.458l-265.819 264.011-88.382-87.866 206.784-205.419c32.115-31.91 85.827-31.91 117.942 0l29.475 29.274z" />
<glyph unicode="&#xe94c;" glyph-name="delete-solid" data-tags="delete-solid" d="M369.598 783.995l4.8-32-148.8-19.2c-14.4-1.6-25.6-16-22.4-32l4.8-41.6 604.8 78.4-4.8 41.6c-1.6 16-16 27.199-32 25.599l-145.6-19.199-4.8 32c-3.2 30.4-20.8 52.8-36.8 51.2l-196.8-25.6c-16-1.6-25.6-28.8-22.4-59.2zM211.198 655.995h592l-48-584c0-22.4-17.6-40-40-40h-420.8c-22.4 0-40 17.6-40 40l-43.2 584zM625.598 560v-432h70.398l40.003 432h-110.402z" />
<glyph unicode="&#xe94d;" glyph-name="devices-solid" data-tags="devices-solid" d="M95.997 133.296c0-45.331 14.724-60.203 60.089-60.203h295.823c45.365 0 60.090 14.872 60.090 60.203v64.768h355.912c45.365 0 60.090 14.874 60.090 60.203v504.451c0 45.331-14.725 60.204-60.090 60.204h-587.024c-45.365 0-60.090-14.873-60.090-60.204v-86.363h-64.711c-45.364 0-60.089-14.874-60.089-60.203v-482.856zM451.909 676.355h-147.91v63.253h540.802v-458.23h-332.802v334.774c0 45.33-14.725 60.203-60.090 60.203zM301.349 127.014c16.621 0 30.093 13.472 30.093 30.093 0 16.619-13.472 30.093-30.093 30.093-16.619 0-30.091-13.474-30.091-30.093 0-16.621 13.472-30.093 30.091-30.093z" />
<glyph unicode="&#xe94e;" glyph-name="diamond-solid" data-tags="diamond-solid" d="M758.685 768h-493.365c-11.078 0.002-21.488-5.909-28.002-15.898l-132.323-202.805c-4.851-7.44-4.315-17.664 1.281-24.424 46.124-55.698 88.195-106.502 126.218-152.416 178.342-215.36 267.574-323.114 267.774-323.304 7.018-7.216 17.952-6.733 24.437 1.080l393.022 474.64c5.595 6.76 6.131 16.984 1.28 24.424l-132.323 202.805c-6.514 9.989-16.923 15.899-28 15.898zM186.054 542.262l96.915 148.554-45.53-148.554 27.456-97.37-78.842 97.37z" />
<glyph unicode="&#xe94f;" glyph-name="documant-solid" data-tags="documant-solid" d="M184.89 32c-22.582 0-40.89 19.72-40.89 44.046v743.907c0 24.327 18.307 44.047 40.89 44.047h654.221c22.582 0 40.89-19.72 40.89-44.047v-743.907c0-24.326-18.307-44.046-40.89-44.046h-654.221zM659.2 666h-349.6v-72h349.6v72zM309.6 486v-72h276v72h-276zM622.4 306h-312.8v-72h312.8v72z" />
<glyph unicode="&#xe950;" glyph-name="dollar-solid" data-tags="dollar-solid" d="M112 720h800c17.674 0 32-14.326 32-32v-480c0-17.674-14.326-32-32-32h-800c-17.673 0-32 14.326-32 32v480c0 17.674 14.327 32 32 32zM240 336c-32 32-80 32-80 32v-112h112c0 0 0 48-32 80zM864 368c0 0-48 0-80-32s-32-80-32-80h112v112zM240 560c32 32 32 80 32 80h-112v-112c0 0 48 0 80 32zM864 528v112h-112c0 0 0-48 32-80s80-32 80-32zM512.003 276.565c82.987 0 150.261 76.75 150.261 171.429 0 94.677-67.274 171.429-150.261 171.429s-150.261-76.752-150.261-171.429c0-94.678 67.274-171.429 150.261-171.429zM543.994 568.984v-157.542h1.39c17.674 0 32-14.326 32-32 0-17.672-14.326-32-32-32h-66.782c-17.672 0-32 14.328-32 32 0 17.674 14.328 32 32 32h1.392v68.558h-31.99l-12.483 33.294 108.474 55.69z" />
<glyph unicode="&#xe951;" glyph-name="door-lock-solid" data-tags="door-lock-solid" d="M512 864c-229.76 0-416-186.24-416-416s186.24-416 416-416c229.76 0 416 186.24 416 416s-186.24 416-416 416zM551.84 416.48v-127.68h-79.68v127.68c-43.2 18.88-67.2 65.44-57.6 111.52s50.24 79.2 97.44 79.2c47.2 0 87.84-33.12 97.44-79.2s-14.4-92.64-57.6-111.52z" />
<glyph unicode="&#xe952;" glyph-name="download-solid" data-tags="download-solid" d="M448 560v304h128v-304h263.189c12.675 0 10.784-21.75 0-32.574l-310.16-311.307c-10.782-10.824-28.267-10.824-39.051 0l-310.16 311.307c-10.784 10.824 3.242 32.574 17.674 32.574h250.509zM880 160h-736v-128h736v128z" />
<glyph unicode="&#xe953;" glyph-name="earth-solid" data-tags="earth-solid" d="M512 864c-229.76 0-416-186.24-416-416s186.24-416 416-416c229.76 0 416 186.24 416 416s-186.24 416-416 416zM268.8 247.2c-10.4 5.28-30.56 28.32-39.2 39.2h58.88c-2.24-15.2-9.12-44.32-19.68-39.2zM511.68 660.32h-0.8c-25.12 1.6-59.36 3.84-70.24-25.76-7.040-18.72-8.16-69.44 14.4-95.68 3.52-4.16 4.32-12 1.76-20.8-3.2-11.52-9.6-18.4-11.68-19.84-3.84 2.24-11.68 11.2-16.96 17.12-12.64 14.56-28.48 32.8-48.8 38.24-6.88 1.92-14.24 3.52-21.6 4.96l-1.76 0.32c-22.080 4.48-47.2 9.76-52.96 22.080-4.16 8.96-4.16 21.44-4.16 34.56 0 16.64 0 35.36-8.16 53.6-4.32 9.44-10.56 16.48-17.6 21.28 59.84 61.92 144.32 100.48 237.6 100.48 46.080 0 91.52-9.44 133.6-28-22.4-14.88-58.4-38.88-70.080-54.88-1.28-1.76-2.72-5.44-4.64-9.76-5.6-13.92-14.72-36.16-33.6-38.4-6.72-0.64-15.2-0.16-24.32 0.48zM763.040 288c0-23.040-3.2-42.080-7.52-57.28-33.6-40.16-75.84-71.52-123.52-91.2 7.68 33.44-3.52 67.040-7.84 78.24-8.96 22.88-38.72 61.92-88.32 116-13.28 14.4-12.32 25.6-7.68 58.56l0.48 3.68c3.2 22.56 8.64 36 81.76 48 37.12 6.080 46.88-9.28 60.48-30.72 1.44-2.4 3.040-4.64 4.48-7.040 12.8-19.52 22.24-24 36.48-30.72l0.16-0.16c8.64-4 17.12-8.48 25.28-13.28 25.6-15.2 25.6-32.32 25.6-69.92v-4.16h0.16z" />
<glyph unicode="&#xe954;" glyph-name="edit-solid" data-tags="edit-solid" d="M144 375.408l477.73 476.394c16.314 16.264 42.758 16.264 59.074 0l118.189-117.86c16.309-16.267 16.309-42.64 0-58.907l-477.73-476.395h-177.262v176.768zM896 115.322v-83.322h-752v83.322h752z" />
<glyph unicode="&#xe955;" glyph-name="education-solid" data-tags="education-solid" d="M847.349 567.568l-252.435-161.677c0 0-48.11-29.374-84.146-29.891-37.182-0.533-87.395 29.806-87.395 29.806l-262.186 161.421c-23.004 14.165-22.895 48.101 0.2 62.109l321.382 194.972c17.195 10.432 38.69 10.241 55.702-0.496l308.677-194.803c22.381-14.123 22.49-47.165 0.2-61.44zM208.002 184v336l79.998-47.998v-213.363l-79.998-74.638zM511.998 240.93c-79.998 0-133.95 25.112-191.886 79.070-0.002 40 0.002 72 0 113 111.888-73 119.885-97 191.886-97s128.002 40 272.002 152c0-31 0-88 0-96s-104-151.070-272.002-151.070z" />
<glyph unicode="&#xe956;" glyph-name="error-solid" data-tags="error-solid" d="M512 864c-229.76 0-416-186.24-416-416s186.24-416 416-416c229.76 0 416 186.24 416 416s-186.24 416-416 416zM512 202.24c-20.96 0-37.76 16.96-37.76 37.76s16.96 37.76 37.76 37.76c20.8 0 37.76-16.96 37.76-37.76s-16.8-37.76-37.76-37.76zM512 315.68c-27.2 0-99.68 287.52-42.4 357.28 24 29.28 57.92 26.56 84.64 0 64.16-63.36-16.32-357.28-42.24-357.28z" />
<glyph unicode="&#xe957;" glyph-name="excel-files-solid" data-tags="excel-files-solid" d="M161.022 795.445l482.666 68.362c5.512 0.784 11.096-0.844 15.302-4.461 4.208-3.617 6.624-8.868 6.622-14.391v-793.915c0-5.515-2.411-10.758-6.61-14.374s-9.771-5.25-15.277-4.478l-482.742 68.363c-18.924 2.672-32.984 18.744-32.984 37.704v619.486c0 18.958 14.060 35.030 32.984 37.704h0.038zM704.016 790.754h153.592c21.208 0 38.398-17.051 38.398-38.085v-609.355c0-21.035-17.19-38.085-38.398-38.085h-153.592v685.525zM550.416 295.67l-107.515 152.339 107.515 152.339h-92.155l-61.437-87.061-61.438 87.061h-92.155l107.515-152.339-107.515-152.339h92.155l61.438 87.062 61.437-87.062h92.155z" />
<glyph unicode="&#xe958;" glyph-name="excel-solid" data-tags="excel-solid" d="M128 822.732v-749.476c0.184-22.733 18.873-41.11 41.968-41.269h684.062c11.21 0.077 21.928 4.534 29.798 12.39 7.872 7.856 12.25 18.469 12.17 29.502v582.117l-218.565 208.003h-507.211c-23.33 0-42.222-18.471-42.222-41.268zM555.472 448.014l109.886-154.517h-94.189l-62.792 88.307-62.792-88.307h-94.189l109.886 154.517-109.886 154.517h94.189l62.792-88.306 62.792 88.306h94.189l-109.886-154.517zM810.267 652.306h-150.946l0.002 148.568 150.944-148.568z" />
<glyph unicode="&#xe959;" glyph-name="exchange-box-solid" data-tags="exchange-box-solid" d="M927.997 822.733v-749.463c-0.202-22.733-20.64-41.109-45.899-41.267h-740.199c-25.331 0-45.873 18.469-45.899 41.267v749.463c0.201 22.732 20.641 41.109 45.899 41.267h740.199c25.331 0 45.899-18.47 45.899-41.267zM511.998 571.619h-164.814v-82.408h370.832l-206.018 206.019v-123.611zM676.816 406.811h-370.834l206.019-206.018v123.611h164.814v82.406z" />
<glyph unicode="&#xe95a;" glyph-name="expand-around-solid" data-tags="expand-around-solid" d="M832.915 863.895l75.392 0.092c10.886 0.013 19.702-9.012 19.69-20.157l-0.373-320.571c-0.013-11.146-10.013-23.334-16.403-16.792l-128.475 131.531-149.827-153.389-85.341 87.368 149.827 153.389-109.718 112.326c-7.275 7.449-3.395 25.901 7.493 25.914l237.736 0.29zM232.027 267.429l-119.252 122.086c-6.39 6.542-16.389-5.645-16.402-16.792l-0.284-244.466-0.010-0.010 0.010-0.010-0.088-76.085c-0.013-11.147 8.802-20.171 19.689-20.158l313.128 0.381c10.886 0.014 14.768 18.466 7.491 25.915l-118.941 121.77 149.29 152.838-85.341 87.368-149.29-152.838zM787.096 262.432l124.133 127.085c6.39 6.541 16.389-5.646 16.403-16.792l0.371-320.571c0.014-11.146-8.802-20.171-19.688-20.158l-313.128 0.382c-10.888 0.013-14.768 18.464-7.493 25.914l114.061 116.773-154.17 157.835 85.339 87.368 154.171-157.835zM96.156 776.547l-0.079 0.080 0.079 0.080-0.078 67.122c-0.013 11.146 8.802 20.171 19.689 20.157l65.564-0.080 0.086 0.089 0.086-0.089 247.392-0.301c10.886-0.013 14.768-18.465 7.491-25.914l-114.638-117.363 144.907-148.352-85.339-87.368-144.907 148.352-123.557-126.494c-6.39-6.542-16.389 5.646-16.402 16.792l-0.294 253.29z" />
<glyph unicode="&#xe95b;" glyph-name="eye-off-solid" data-tags="eye-off-solid" d="M224.397 681.245l-120.233 120.196 54.407 54.407 761.276-761.313-54.408-54.37-127.27 127.27c-67.626-42.893-146.082-65.608-226.163-65.48-207.323 0-379.811 149.186-415.993 346.051 16.535 89.562 61.583 171.376 128.423 233.238h-0.038zM618.011 287.61l-56.291 56.29c-44.123-21.11-96.765-12.098-131.35 22.49-34.587 34.587-43.6 87.227-22.49 131.35l-56.291 56.291c-50.438-76.219-40.245-177.413 24.382-242.040s165.821-74.821 242.040-24.381zM512.008 794.048c-54.6 0-106.853-10.382-154.8-29.222v-0.038l126.616-126.539c60.222 8.939 121.122-11.174 164.173-54.226 43.050-43.051 63.165-103.949 54.224-164.173l148.418-148.418c39.099 52.078 65.581 112.517 77.362 176.563-36.181 196.866-208.669 346.053-415.992 346.053z" />
<glyph unicode="&#xe95c;" glyph-name="eye-solid" data-tags="eye-solid" d="M96.010 448.002c36.143 196.866 208.67 346.053 415.995 346.053s379.813-149.187 415.995-346.053c-36.144-196.867-208.67-346.054-415.995-346.054s-379.813 149.187-415.995 346.054zM512.003 255.755c106.178 0 192.251 86.074 192.251 192.253 0 106.178-86.074 192.251-192.251 192.251s-192.253-86.074-192.253-192.251c0-106.179 86.075-192.253 192.253-192.253zM396.653 448.002c0-63.707 51.645-115.352 115.352-115.352s115.35 51.645 115.35 115.352-51.645 115.352-115.35 115.352c-63.707 0-115.352-51.645-115.352-115.352z" />
<glyph unicode="&#xe95d;" glyph-name="face-mask-solid" data-tags="face-mask-solid" d="M928 603.68c-17.12 34.080-59.68 81.12-162.080 59.68-7.68 0-14.4-2.72-19.52-7.040-3.2 5.44-6.56 9.28-10.4 11.36-213.28 111.040-226.080 132.32-226.080 132.32s-12.8-21.28-226.080-132.32c-5.12-2.56-9.76-7.84-13.76-15.2-6.080 4.32-13.12 6.72-20.48 6.72 4.32 0 4.32 0 4.32 0-98.080 25.6-140.8-25.6-157.92-59.68-42.72-85.28 8.48-221.92 51.2-264.48 44.48-44.48 94.4-53.28 125.6-55.040 0.8-1.6 1.6-3.2 2.4-4.64 38.4-68.32 166.4-132.32 234.72-132.32s196.32 64 234.72 132.32c1.44 2.56 2.72 5.6 4 8.8 28 1.12 81.28 8.16 128.32 55.2 42.56 42.56 93.76 179.040 51.040 264.32zM194.24 381.92c-29.92 29.92-64 136.48-38.4 187.68 12.8 25.6 38.4 34.080 81.12 21.28 4.32 0 8.48 0 12.8 0 0.8 0 1.6 0.16 2.4 0.32-11.040-68.64-10.24-168.32 1.6-240.96-19.2 4.32-40.64 12.64-59.52 31.68zM591.040 317.92h-170.72c-17.12 0-34.080 17.12-34.080 34.080 0 17.12 17.12 34.080 34.080 34.080h170.72c17.12 0 34.080-17.12 34.080-34.080 0-17.12-17.12-34.080-34.080-34.080zM595.2 450.080h-170.56c-17.12 0-34.080 17.12-34.080 34.080 0 17.12 17.12 34.080 34.080 34.080h170.56c17.12 0 34.080-17.12 34.080-34.080 0.16-16.96-16.96-34.080-34.080-34.080zM825.6 386.080c-21.44-21.44-42.72-30.72-61.28-34.88 10.72 75.52 10.72 180.64-0.96 249.12 2.24-0.48 4.48-0.8 6.72-0.8 4.32-4.32 8.48 0 12.8 0 42.72 8.48 68.32 0 81.12-25.6 25.6-55.52-8.48-157.92-38.4-187.84z" />
<glyph unicode="&#xe95e;" glyph-name="fax-solid" data-tags="fax-solid" d="M885.28 606.56h-21.28v145.44h-368v-145.44h-64v-400h-272v400h-21.28c-23.68 0-42.72-19.040-42.72-42.56v-421.28h832v421.28c0 23.52-19.040 42.56-42.72 42.56zM560 574.56v113.44h240v-113.44h-240zM384 686.563h-176v-432h176v432z" />
<glyph unicode="&#xe95f;" glyph-name="female-solid" data-tags="female-solid" d="M511.998 31.834c-229.752 0-416.002 186.25-416.002 416 0 229.752 186.25 416.002 416.002 416.002s416.002-186.25 416.002-416.002c0-229.75-186.25-416-416.002-416zM512 112.008c185.568 0 336 151.587 336 338.579 0 86.918-88.606 107.853-191.438 132.147-91.333 21.578-193.886 45.806-255.542 121.274-60.707-152.933-172.691-199.485-222.522-220.2l-0.938-0.389c-1.032-10.805-1.56-21.757-1.56-32.832 0-186.992 150.434-338.579 336-338.579zM387.822 458.187c-10.234 0-20.237-3.034-28.746-8.72-8.509-5.685-15.141-13.765-19.056-23.219-3.917-9.454-4.941-19.858-2.944-29.894 1.995-10.037 6.923-19.256 14.16-26.493 7.235-7.235 16.454-12.163 26.491-14.16 10.037-1.995 20.44-0.971 29.894 2.944 9.454 3.917 17.534 10.549 23.221 19.058 5.685 8.509 8.718 18.512 8.718 28.746-0.003 13.72-5.456 26.878-15.158 36.581s-22.859 15.155-36.581 15.158zM636.174 458.187c-10.232 0-20.237-3.034-28.744-8.72-8.509-5.685-15.141-13.765-19.058-23.219-3.915-9.454-4.941-19.858-2.944-29.894s6.925-19.256 14.16-26.493c7.237-7.235 16.456-12.163 26.493-14.16 10.035-1.995 20.44-0.971 29.893 2.944 9.454 3.917 17.536 10.549 23.221 19.058s8.72 18.512 8.72 28.746c-0.003 13.72-5.456 26.878-15.158 36.581s-22.861 15.155-36.582 15.158zM783.304 750.301c0 0-51.451 28.987-57.010 57.261-6.485 32.986 19.122 58.479 52.078 51.848 28.248-5.684 51.45-28.988 57.010-57.262 6.485-32.985-52.078-51.848-52.078-51.848zM802.283 731.23c0 0 31.504-54.334 60.909-61.181 34.307-7.986 59.914 17.507 52.078 51.85-6.715 29.435-31.504 54.334-60.909 61.179-34.307 7.987-52.078-51.848-52.078-51.848z" />
<glyph unicode="&#xe960;" glyph-name="file-pdf-solid" data-tags="file-pdf-solid" d="M131.775 795.438h-0.042c-20.501-2.672-35.733-18.744-35.733-37.704v-619.486c0-18.958 15.232-35.030 35.733-37.704l522.972-68.362c5.965-0.773 12.002 0.861 16.549 4.477 4.549 3.616 7.162 8.859 7.162 14.374v793.916c0.002 5.523-2.616 10.773-7.174 14.391s-10.606 5.245-16.578 4.461l-522.889-68.363zM720.010 790.741v-685.526h166.394c22.974 0 41.598 17.051 41.598 38.085v609.357c0 21.034-18.624 38.085-41.598 38.085h-166.394zM359.112 590.56c45.568 11.81 60.184-4.722 56.931-47.994-1.829-24.326-4.485-33.094-13.944-61.118 10.040-16.84 22.922-32.221 36.563-46.739 37.192 1.115 91.509-4.517 108.747-40.019 17.28-35.365-21.077-66.874-59.637-56.309-27.667 7.581-50.762 28.547-70.078 47.152-25.534-3.424-50.786-8.867-75.205-16.518-18.786-25.622-44.906-61.021-81.178-66.746-27.584-4.374-44.211 18.254-38.491 41.171 8.597 35.088 52.307 52.618 85.744 64.517 15.144 22.277 28.53 45.8 38.222 70.533-1.334 3.141-2.232 5.878-3.162 8.715-0.862 2.632-1.754 5.349-3.048 8.555-5.539 13.712-20.989 84.558 18.534 94.8z" />
<glyph unicode="&#xe961;" glyph-name="file-shred-solid" data-tags="file-shred-solid" d="M938.666 362.666v85.334h-85.333v213.333l-213.333 213.333h-426.838c-23.509 0-42.496-18.987-42.496-42.453v-384.213h-85.333v-85.334h853.333zM213.331 277.328h-85.334v-256h85.334v256zM810.664 277.328h85.333v-256h-85.333v256zM725.33 277.328h-85.333v-256h85.333v256zM469.331 277.328h85.333v-256h-85.333v256zM383.997 277.328h-85.333v-256h85.333v256z" />
<glyph unicode="&#xe962;" glyph-name="file-solid" data-tags="file-solid" d="M384.128 864l-256.127-249.6v-540.509c-0.080-11.034 4.34-21.645 12.285-29.501s18.767-12.314 30.083-12.39h683.262c23.382 0 42.344 18.469 42.368 41.267v749.466c0 22.339-19.2 41.267-42.752 41.267h-469.12zM191.998 572.81l234.667 228.8v-228.8h-234.667z" />
<glyph unicode="&#xe963;" glyph-name="files-unknow-solid" data-tags="files-unknow-solid" d="M643.68 863.84l-482.72-68.32c-18.88-2.72-32.96-18.88-32.96-37.76v-619.52c0-19.040 14.080-35.040 32.96-37.76l482.72-68.32c5.44-0.8 11.040 0.8 15.2 4.48s6.56 8.8 6.56 14.4v793.92c0 5.6-2.4 10.72-6.56 14.4s-9.6 5.28-15.2 4.48zM431.36 278.56h-75.84v75.84h75.84v-75.84zM472.96 425.76c-22.88-21.12-55.36-31.84-96.48-31.84-6.72 0-13.6 0.32-20.8 0.8l4.96 63.84c31.84-2.4 56.16 2.56 68.8 14.24 7.84 7.2 11.52 17.6 11.52 31.68 0 17.76-14.56 41.28-35.68 46.56-26.88 6.88-56.96-11.36-68.32-41.28l-59.84 22.88c23.36 60.8 85.12 95.2 143.84 80.48 47.84-12.16 83.84-58.88 83.84-108.64 0.16-32-10.88-59.2-31.84-78.72zM857.6 800h-153.6v-704h153.6c21.28 0 38.4 17.12 38.4 38.080v627.84c0 20.96-17.12 38.080-38.4 38.080z" />
<glyph unicode="&#xe964;" glyph-name="file-unknow-solid" data-tags="file-unknow-solid" d="M676.8 864h-507.2c-22.4 0-41.6-19.2-41.6-41.6v-748.8c0-22.4 19.2-41.6 41.6-41.6h684.8c11.2 0 22.4 4.8 30.4 12.8s12.8 19.2 12.8 28.8v582.4l-220.8 208zM548.8 278.4h-75.2v75.2h75.2v-75.2zM590.4 425.6c-22.4-20.8-56-32-96-32-6.4 0-14.4 0-20.8 1.6l4.8 64c32-3.2 56 3.2 68.8 14.4 8 8 11.2 17.6 11.2 32 0 17.6-14.4 41.6-35.2 46.4-27.2 6.4-57.6-11.2-68.8-41.6l-59.2 22.4c24 60.8 84.8 96 144 80 48-12.8 83.2-59.2 83.2-108.8 0-30.4-11.2-57.6-32-78.4zM643.2 620.8v166.4l176-166.4h-176z" />
<glyph unicode="&#xe965;" glyph-name="filling-solid" data-tags="filling-solid" d="M608.866 410.557v-378.557l-193.731 128.267v250.29l-314.439 410.109c0 0-10.564 7.148 0 26.003 9.899 17.668 17.138 17.331 17.138 17.331h788.335c0 0 7.238 0.335 17.138-17.333 10.563-18.855 0-26 0-26l-314.44-410.109zM205.56 687.099h613.562l54.619 72.453h-723.479l55.298-72.453z" />
<glyph unicode="&#xe966;" glyph-name="filter-solid" data-tags="filter-solid" d="M608.866 32v378.557l314.44 410.109c0 0 10.563 7.146 0 26-9.899 17.668-17.138 17.333-17.138 17.333h-788.335c0 0-7.239 0.337-17.138-17.331-10.564-18.855 0-26.003 0-26.003l314.439-410.109v-250.29l193.731-128.267z" />
<glyph unicode="&#xe967;" glyph-name="fire-solid" data-tags="fire-solid" d="M503.992 32c-121.368 0.010-230.434 72.662-275.154 183.29-44.722 110.629-16.035 236.814 72.37 318.349 52.965 48.875 183.051 136.874 163.317 330.362 236.806-154.79 355.21-309.581 118.403-541.768 39.467 0 98.669 0 197.338 95.584 10.658-29.914 19.734-62.072 19.734-95.584 0-160.291-132.526-290.232-296.008-290.232z" />
<glyph unicode="&#xe968;" glyph-name="flag-solid" data-tags="flag-solid" d="M220.568 336.71v-295.88h-67.863v814.349h708.748c6.605 0.011 12.717-3.498 16.037-9.208 3.322-5.71 3.349-12.757 0.072-18.493l-132.32-231.533 132.32-231.534c3.277-5.736 3.25-12.782-0.072-18.493-3.32-5.71-9.432-9.219-16.037-9.208h-640.885z" />
<glyph unicode="&#xe969;" glyph-name="flag-wind-solid" data-tags="flag-wind-solid" d="M214.931 333.144v-300.768h-68.88v830.843h382.551c15.44-0.008 29.55-8.737 36.453-22.548l29.522-59.001h244.65c22.518 0 40.774-18.256 40.774-40.774v-448.525c0-22.52-18.256-40.774-40.774-40.774h-260.226c-15.442 0.008-29.552 8.736-36.453 22.547l-29.522 59.002h-298.094z" />
<glyph unicode="&#xe96a;" glyph-name="focus-solid" data-tags="focus-solid" d="M836.32 486.080c-17.28 149.12-136.48 267.2-286.24 282.88v95.040h-76v-96c-146.080-19.040-261.44-135.52-278.72-281.92h-99.36v-76h99.36c17.12-146.56 132.64-263.040 278.56-282.080v-96h76v95.040c149.76 15.68 268.8 133.76 286.24 282.88h91.84v76h-91.68v0.16zM640 416h-96v-96h-64v96h-96v64h96v96h64v-96h96v-64z" />
<glyph unicode="&#xe96b;" glyph-name="folder-open-solid" data-tags="folder-open-solid" d="M847.709 734.222h-276.37l-83.926 81.778h-311.115c-23.175 0-41.963-18.306-41.963-40.888v-122.666h755.337v40.888c0 22.582-18.787 40.888-41.963 40.888zM886.018 570.667h-748.035c-11.738 0.005-22.942-4.781-30.892-13.195s-11.92-19.69-10.945-31.088l34.997-408.885c1.811-21.184 19.979-37.482 41.795-37.494h678.125c21.816 0.013 39.984 16.31 41.795 37.494l34.997 408.885c0.974 11.398-2.995 22.674-10.946 31.088-7.949 8.414-19.154 13.2-30.891 13.195z" />
<glyph unicode="&#xe96c;" glyph-name="folder-solid" data-tags="folder-solid" d="M529.222 746.667h357.178c22.974 0 41.6-19.102 41.6-42.667v-597.333c0-23.565-18.626-42.667-41.6-42.667h-748.8c-22.975 0-41.6 19.102-41.6 42.667v682.666c0 23.565 18.625 42.667 41.6 42.667h308.422l83.2-85.333z" />
<glyph unicode="&#xe96d;" glyph-name="folders-solid" data-tags="folders-solid" d="M262.4 789.325v-128h-124.8c-22.975 0-41.6-19.102-41.6-42.666v-512c0-23.565 18.625-42.667 41.6-42.667h582.4c22.974 0 41.6 19.102 41.6 42.667v128h124.8c22.974 0 41.6 19.102 41.6 42.666v426.667c0 23.565-18.626 42.667-41.6 42.667h-232.378l-83.2 85.333h-266.822c-22.974 0-41.6-19.103-41.6-42.667zM179.2 576.014h83.2v-341.333h415.998v-85.334h-499.198v426.667z" />
<glyph unicode="&#xe96e;" glyph-name="fold-paper-solid" data-tags="fold-paper-solid" d="M179.438 323.2v499.2c0 22.975 18.677 41.6 41.718 41.6h665.125c23.040 0 41.718-18.625 41.718-41.6v-665.6c0-68.925-56.035-124.8-125.157-124.8h-581.686c-69.122 0-125.157 55.875-125.157 124.8v83.2h665.125v-87.954c0-22.976 18.678-41.6 41.718-41.6 23.042 0 41.718 18.624 41.718 41.6v171.154h-665.123z" />
<glyph unicode="&#xe96f;" glyph-name="forward-solid" data-tags="forward-solid" d="M519.816 80l379.112 313.507c0 0 29.072 25.326 29.072 55.024 0 29.699-29.072 53.962-29.072 53.962l-379.112 313.507v-238.118c-212.168 0-387.913-159.245-418.95-367.118-3.204-21.462-4.866-43.445-4.866-65.822 0-11.819 0.424-23.509 1.356-35.067 6.244 12.128 13.063 23.826 20.412 35.067 9.964 15.243 20.902 29.645 32.703 43.139 71.432 81.678 174.491 130.080 284.582 130.038h84.763v-238.118z" />
<glyph unicode="&#xe970;" glyph-name="function-solis" data-tags="function-solis" d="M469.333 832h-341.333v-341.333h341.333v341.333zM469.333 405.333h-341.333v-341.333h341.333v341.333zM554.667 661.333c0 94.258 76.41 170.667 170.666 170.667 94.258 0 170.667-76.41 170.667-170.667s-76.41-170.666-170.667-170.666c-94.256 0-170.666 76.41-170.666 170.666zM896 64v341.333h-341.333v-341.333h341.333z" />
<glyph unicode="&#xe971;" glyph-name="global-net-solid" data-tags="global-net-solid" d="M936.538 490.667h-233.685c-7.302 135.118-50.371 265.872-124.8 378.88 191.73-30.116 339.013-185.779 358.485-378.88zM445.957 869.542c-191.731-30.116-339.014-185.778-358.486-378.879h233.686c7.301 135.118 50.37 265.872 124.8 378.879zM321.154 405.339h-233.685c19.472-193.102 166.755-348.765 358.485-378.88-74.429 113.006-117.499 243.76-124.8 378.88zM578.053 26.459c191.73 30.115 339.013 185.778 358.485 378.88h-233.685c-7.302-135.12-50.371-265.874-124.8-378.88zM406.614 405.339h210.773c-7.022-115.179-43.293-226.664-105.386-323.926-62.093 97.262-98.365 208.747-105.387 323.926zM512.002 814.588c-62.093-97.26-98.365-208.747-105.387-323.924h210.773c-7.022 115.178-43.293 226.664-105.386 323.924z" />
<glyph unicode="&#xe972;" glyph-name="globe-solid" data-tags="globe-solid" d="M725.858 108.739h-192.678v40.288c194.72 19.224 346.821 182.83 346.821 381.774 0.059 137.715-74.042 264.891-194.142 333.198l-38.227-66.648c112.733-64.237 172.934-191.938 150.541-319.33s-122.576-227.142-250.52-249.438-256.198 37.645-320.715 149.891l-66.936-38.062c61.834-107.698 172.139-178.992 296.107-191.386v-40.288h-192.677v-76.738h462.427v76.738zM261.030 396.523c48.186-83.099 137.237-134.291 233.61-134.291 148.979 0 269.75 120.25 269.75 268.584 0 148.336-120.771 268.586-269.75 268.586-96.373 0-185.424-51.192-233.61-134.293s-48.186-185.485 0-268.586z" />
<glyph unicode="&#xe973;" glyph-name="graph-chart-solid" data-tags="graph-chart-solid" d="M117.385 316.643l176.871 176.877 147.029-147.085 164.133 164.138-93.218 93.221h259.95v-259.958l-93.218 93.221-237.648-237.654-147.029 147.034-128.675-128.629c121.203-182.429 363.107-239.606 553.157-130.744 190.048 108.862 263.114 346.458 167.077 543.302-96.037 196.846-328.266 285.485-531.032 202.689s-306.584-308.654-237.397-516.464v0.053z" />
<glyph unicode="&#xe974;" glyph-name="grid-solid" data-tags="grid-solid" d="M843.2 864h-662.4c-46.4 0-84.8-38.4-84.8-84.8v-664c0-46.4 38.4-84.8 84.8-84.8h664c46.4 0 84.8 38.4 84.8 84.8v664c-1.6 46.4-40 84.8-86.4 84.8zM208 720c0 17.6 14.4 32 32 32h96v-128h-128v96zM336 144h-96c-17.6 0-32 14.4-32 32v96h128v-128zM336 384h-128v128h128v-128zM576 144h-128v128h128v-128zM576 384h-128v128h128v-128zM576 633.6h-128v118.4h128v-118.4zM816 176c0-17.6-14.4-32-32-32h-96v128h128v-96zM816 384h-128v128h128v-128zM816 624h-128v128h96c17.6 0 32-14.4 32-32v-96z" />
<glyph unicode="&#xe975;" glyph-name="hamburger-solid" data-tags="hamburger-solid" d="M160 288v-128h704v128h-704zM160 512v-128h704v128h-704zM864 608v128h-704v-128h704z" />
<glyph unicode="&#xe976;" glyph-name="happy-solid" data-tags="happy-solid" d="M512 32c229.76 0 416 186.24 416 416s-186.24 416-416 416c-229.76 0-416-186.24-416-416s186.24-416 416-416zM605.76 218.72c-29.12-14.56-61.28-21.92-93.76-21.28-32.48-0.48-64.64 6.72-93.76 21.28s-54.24 35.84-73.28 62.24c-18.72 25.12-32.8 53.28-41.76 83.2v0.32h417.76c-8.8-30.080-23.040-58.4-41.76-83.52-19.2-26.4-44.32-47.68-73.44-62.24zM692.96 458.56c-10.24-6.88-22.4-10.56-34.88-10.56-16.64 0-32.48 6.56-44.32 18.4-11.68 11.68-18.4 27.68-18.4 44.32 0 12.32 3.68 24.48 10.56 34.88 6.88 10.24 16.64 18.4 28.16 23.040s24 5.92 36.16 3.52c12.16-2.4 23.36-8.32 32.16-17.12s14.72-20 17.12-32.16c2.4-12.16 1.12-24.8-3.52-36.16-4.64-11.52-12.64-21.28-23.040-28.16zM400.8 459.040c-10.24-6.88-22.24-10.56-34.72-10.56-16.48 0-32.32 6.56-44 18.24s-18.24 27.52-18.24 44c0 12.32 3.68 24.32 10.56 34.72 6.88 10.24 16.64 18.24 28 23.040s24 5.92 36 3.52c12.16-2.4 23.2-8.32 32-17.12s14.72-19.84 17.12-32c2.4-12.16 1.12-24.64-3.52-36-4.96-11.2-12.96-20.96-23.2-27.84z" />
<glyph unicode="&#xe977;" glyph-name="heart-solid" data-tags="heart-solid" d="M867.36 418.611l0.502-0.539-355.862-354.072-355.863 354.072 0.503 0.539c-85.718 99.43-79.916 247.794 13.308 340.296s242.352 97.87 342.051 12.312c99.699 85.558 248.827 80.19 342.051-12.312s99.026-240.866 13.309-340.296v0z" />
<glyph unicode="&#xe978;" glyph-name="help-box-solid" data-tags="help-box-solid" d="M882.080 864h-740.16c-25.28-0.16-45.76-18.56-45.92-41.28v-749.44c0-22.88 20.64-41.28 45.92-41.28h740.16c25.28 0.16 45.76 18.56 45.92 41.28v749.44c0 22.88-20.64 41.28-45.92 41.28zM549.12 280.8h-74.24v74.4h74.24v-74.4zM623.2 496.32c-3.84-58.56-52.96-104.16-112.32-104.16h-32.16v63.84h32.16c25.44 0 46.4 19.52 48.16 44.64 1.6 25.12-16.64 47.2-41.76 50.4-25.12 3.36-48.64-13.28-53.6-37.92l-63.040 12.48c11.68 57.6 66.4 96.32 125.12 88.64 58.72-7.84 101.28-59.36 97.44-117.92z" />
<glyph unicode="&#xe979;" glyph-name="help-cercle-solid" data-tags="help-cercle-solid" d="M512 864c-229.76 0-416-186.24-416-416s186.24-416 416-416c229.76 0 416 186.24 416 416s-186.24 416-416 416zM552.16 261.44h-75.84v75.84h75.84v-75.84zM593.76 408.64c-22.88-21.12-55.36-31.84-96.48-31.84-6.72 0-13.6 0.32-20.8 0.8l4.96 63.84c31.84-2.4 56.16 2.56 68.8 14.24 7.84 7.2 11.52 17.6 11.52 31.68 0 17.76-14.56 41.28-35.68 46.56-26.88 6.88-56.96-11.36-68.32-41.28l-59.84 22.88c23.36 60.8 85.12 95.2 143.84 80.48 47.84-12.16 83.84-58.88 83.84-108.64 0.32-32.16-10.88-59.2-31.84-78.72z" />
<glyph unicode="&#xe97a;" glyph-name="home-solid" data-tags="home-solid" d="M839.23 112h-231.227v319.022h-192v-319.022h-231.226c-22.518 0-40.774 18.181-40.774 40.608v389.824l340.046 246.995c15.557 14.097 39.326 14.097 54.882 0l341.072-246.995v-389.824c0-22.427-18.254-40.608-40.773-40.608z" />
<glyph unicode="&#xe97b;" glyph-name="honour-solid" data-tags="honour-solid" d="M845.269 782.429v-585.686c0.010-7.494-4.41-14.286-11.264-17.314l-321.834-145.578-321.832 145.539c-6.88 3.040-11.304 9.869-11.266 17.39v585.648h-82.73v74.22h831.656v-74.22h-82.731zM359.973 633.989h304.003v-74.219h-304.003v74.219zM663.976 448.44h-304.003v-74.219h304.003v74.219z" />
<glyph unicode="&#xe97c;" glyph-name="image-place-solid" data-tags="image-place-solid" d="M170.667 832h682.666c23.565 0 42.667-19.103 42.667-42.667v-682.666c0-23.565-19.102-42.667-42.667-42.667h-682.666c-23.565 0-42.667 19.102-42.667 42.667v682.666c0 23.565 19.103 42.667 42.667 42.667zM213.333 486.4l85.334 85.333 234.666-234.666 149.334 149.333 128-128v388.267h-597.334v-260.267zM597.333 597.333c0-35.346 28.654-64 64-64s64 28.654 64 64c0 35.347-28.653 64-64 64s-64-28.653-64-64z" />
<glyph unicode="&#xe97d;" glyph-name="image-solid" data-tags="image-solid" d="M880 696c0-75.11-64.47-136-144-136s-144 60.89-144 136c0 75.11 64.47 136 144 136s144-60.89 144-136zM580.246 427.187l-100.816 152.902c-33.594 50.95-87.867 52.067-122.344 2.512 0 0-62.299-107.653-189.374-329.138-56.305-98.138-78.208-144.574-70.069-166.782 8.313-22.682 76.006-22.682 96.197-22.682l631.806 0.024c41.566 0 80.054 3.213 96.197 21.347 12.698 14.266 5.286 52.277-17.814 88.061-78.382 121.418-197.346 304.987-197.346 304.987-24.734 37.395-64.613 38.173-90.010 1.834l-36.427-53.066zM510.926 414.574l-71.915 107.246c-16.48 24.632-19.275 22.715-32.358 0.65l-62.734-107.896 55.669 31.272 111.339-31.272z" />
<glyph unicode="&#xe97e;" glyph-name="industry-solid" data-tags="industry-solid" d="M426.667 528.597v388.735l469.333-255.999v-597.334h-768v597.334l298.667-132.736z" />
<glyph unicode="&#xe97f;" glyph-name="key-solid" data-tags="key-solid" d="M536.587 373.35h84.462v-149.315h149.315v76.205h74.947v73.11h77.291v149.314h-386.016c-36.36 102.845-141.525 164.536-249.037 146.090-107.51-18.446-186.097-111.664-186.097-220.747 0-109.082 78.587-202.299 186.097-220.746 107.512-18.446 212.677 43.245 249.037 146.090zM400.013 447.99c0-41.232-33.426-74.658-74.658-74.658s-74.658 33.426-74.658 74.658c0 41.232 33.426 74.658 74.658 74.658s74.658-33.426 74.658-74.658z" />
<glyph unicode="&#xe980;" glyph-name="laptop-solid" data-tags="laptop-solid" d="M875.734 176h-727.469c-41.12 0-52.266 11.237-52.266 53.643 0 42.408 5.843 62.928 37.818 62.928h37.819v373.786c0 30.445 27.358 53.643 52.266 53.643h576.195c24.907 0 52.266-23.198 52.266-53.643v-373.786h37.819c37.818 0 37.818-33.526 37.818-62.928 0-42.406-11.146-53.643-52.266-53.643z" />
<glyph unicode="&#xe981;" glyph-name="lifebuoy-solid" data-tags="lifebuoy-solid" d="M831.422 181.485c60.291 72.182 96.574 165.112 96.574 266.517 0 100.95-35.958 193.502-95.766 265.547l-137.072-136.662-4.997 5.013c28.061-37.278 44.694-83.646 44.694-133.901 0-47.925-15.128-92.318-40.87-128.662l137.437-137.851zM777.554 127.776l-137.437 137.853c-36.242-25.509-80.43-40.486-128.117-40.486-47.93 0-92.323 15.13-128.669 40.875l-137.853-137.438c72.184-60.293 165.115-96.576 266.52-96.576 100.955 0 193.51 35.962 265.555 95.773zM641.451 630.757l4.987-5.003c-37.37 28.307-83.942 45.102-134.438 45.102-47.686 0-91.875-14.979-128.118-40.486l-137.44 137.856c72.045 59.812 164.602 95.774 265.557 95.774 101.41 0 194.342-36.286 266.526-96.582l-137.074-136.661zM330.013 576.661l-137.44 137.856c-60.291-72.182-96.573-165.112-96.573-266.515 0-100.954 35.961-193.509 95.771-265.554l137.853 137.44c-25.504 36.24-40.48 80.427-40.48 128.11 0 47.926 15.128 92.318 40.869 128.662zM204.016 168.352c8.702-9.579 17.846-18.75 27.398-27.482l-27.398 27.482z" />
<glyph unicode="&#xe982;" glyph-name="light-flash-solid" data-tags="light-flash-solid" d="M262.171 348.968c-104.736 129.619-90.749 317.33 32.062 430.314 122.813 112.984 312.832 112.954 435.608-0.069 122.774-113.024 136.701-300.738 31.923-430.325-5.694-7.022-13.506-14.995-22.163-23.829v0c-29.043-29.638-67.595-68.981-67.595-114.765v-99.053c0-43.763-35.818-79.242-80-79.242h-159.997c-44.182 0-80 35.478-80 79.242v99.053c0 45.752-38.52 85.070-67.586 114.738-8.69 8.87-16.536 16.877-22.253 23.936zM425.122 154.578v-45.23h173.038v45.23h-173.038zM643.072 532.853h-93.88v156.318l-168.982-234.4h93.878v-156.163l168.984 234.245z" />
<glyph unicode="&#xe983;" glyph-name="light-solid" data-tags="light-solid" d="M729.92 779.2c-122.72 112.96-312.8 113.12-435.68 0-122.88-112.96-136.8-300.64-32-430.24 5.76-7.040 13.6-15.040 22.24-24 28.96-29.6 67.52-68.96 67.52-114.72v-99.040c0-43.84 35.84-79.2 80-79.2h160c44.16 0 80 35.52 80 79.2v99.040c0 45.76 38.56 85.12 67.52 114.72 8.64 8.8 16.48 16.8 22.24 23.84 104.8 129.6 90.88 317.44-31.84 430.4zM474.080 484.64h75.040v-185.92h-75.040v185.92zM605.6 112.64h-187.84v57.92h187.68v-57.92h0.16z" />
<glyph unicode="&#xe984;" glyph-name="link-solid" data-tags="link-solid" d="M784.418 296.266l-78.253 78.339 60.323 60.324c54.281 53.807 93.555 114.613 73.882 188.469-19.675 73.855-77.359 131.54-151.214 151.213-73.855 19.675-134.662-19.6-188.469-73.881l-60.323-60.367-78.298 78.255 60.41 60.323c116.629 116.63 305.722 116.63 422.353 0 116.629-116.629 116.629-305.722 0-422.351l-60.41-60.324zM663.766 175.633l-0.021-0.021-78.276 78.234-60.323-60.324c-53.807-54.281-114.615-93.555-188.469-73.881-73.855 19.673-131.54 77.358-151.213 151.213-19.675 73.855 19.6 134.662 73.881 188.469l60.324 60.323-78.255 78.341-60.366-60.324c-116.63-116.629-116.63-305.722 0-422.353 116.629-116.629 305.722-116.629 422.351 0l60.367 60.324zM390.396 223.085c33.745 48.050 299.997 314.299 346.493 346.525 35.521 24.62-79.511 139.466-103.612 103.6-31.635-47.076-297.888-313.324-346.493-346.525-35.689-24.376 78.776-138.961 103.612-103.6z" />
<glyph unicode="&#xe985;" glyph-name="list-solid" data-tags="list-solid" d="M107.886 806.537c-10.836-8.987-11.886-24.184-11.886-24.184v-668.707c0 0 1.383-13.842 11.886-23.133 10.503-9.29 26.149-10.514 26.149-10.514h755.932c0 0 16.834 2.275 27.336 11.566 10.504 9.29 10.698 22.080 10.698 22.080v668.707c0 0-1.382 13.842-11.885 23.132-10.504 9.291-26.149 10.514-26.149 10.514h-758.309c0 0-13.613-1.038-23.772-9.463zM416 704h416v-96h-416v96zM832 496v-96h-416v96h416zM416 288h416v-96h-416v96zM256 592c-35.346 0-64 28.654-64 64s28.654 64 64 64c35.347 0 64-28.654 64-64s-28.653-64-64-64zM320 448c0-35.346-28.653-64-64-64s-64 28.654-64 64 28.654 64 64 64c35.347 0 64-28.654 64-64zM256 176c-35.346 0-64 28.654-64 64s28.654 64 64 64c35.347 0 64-28.654 64-64s-28.653-64-64-64z" />
<glyph unicode="&#xe986;" glyph-name="lock-solid" data-tags="lock-solid" d="M801.39 556.522h-633.043v-416c0-59.686 48.835-108.522 108.522-108.522h470.261c59.688 0 108.522 48.835 108.522 108.522v416h-54.261zM548.174 267.13v-108.522h-72.349v108.522c-36.174 16.278-54.261 56.070-45.218 95.861 7.235 39.792 41.6 66.922 81.392 66.922 39.79 0 74.157-27.13 81.39-66.922 9.045-39.79-9.043-79.582-45.216-95.861zM320 574.608c0 119.374 72.627 193.392 192 193.392s192-74.018 192-193.392v-18.086h97.392v18.086c0 159.166-130.226 289.392-289.392 289.392-159.165 0-289.39-130.226-289.39-289.392v-18.086h97.39v18.086z" />
<glyph unicode="&#xe987;" glyph-name="login-box-solid" data-tags="login-box-solid" d="M426.667 490.666h-256v341.334c0 23.564 19.102 42.667 42.666 42.667h597.334c23.563 0 42.666-19.103 42.666-42.667v-767.999c0-23.565-19.102-42.667-42.666-42.667h-597.334c-23.563 0-42.666 19.102-42.666 42.667v341.333h256v-128l213.333 170.667-213.333 170.666v-128z" />
<glyph unicode="&#xe988;" glyph-name="login-circle-solid" data-tags="login-circle-solid" d="M426.658 490.666h-339.2c21.333 215.595 203.264 384 424.534 384 235.648 0 426.666-191.018 426.666-426.666s-191.018-426.667-426.666-426.667c-221.227 0-403.158 168.405-424.534 384h339.2v-128l213.334 170.667-213.334 170.666v-128z" />
<glyph unicode="&#xe989;" glyph-name="logout-box-solid" data-tags="logout-box-solid" d="M810.667 874.666h-597.333c-23.565 0-42.667-19.103-42.667-42.667v-767.999c0-23.565 19.102-42.667 42.667-42.667h597.333c23.563 0 42.667 19.102 42.667 42.667v767.999c0 23.564-19.104 42.667-42.667 42.667zM384.003 618.661v-128h256v-85.333h-256v-128l-213.334 170.666 213.334 170.667z" />
<glyph unicode="&#xe98a;" glyph-name="logout-circle-solid" data-tags="logout-circle-solid" d="M85.34 447.986l-0.010 0.008 0.010 0.010c0.002 235.646 191.020 426.663 426.666 426.663 235.648 0 426.667-191.018 426.667-426.666s-191.019-426.667-426.667-426.667c-235.643 0-426.659 191.011-426.666 426.653zM85.34 447.986l213.324-170.658v128h341.333v85.333h-341.333v128l-213.324-170.658c0-0.002 0-0.003 0-0.003 0-0.005 0-0.010 0-0.014z" />
<glyph unicode="&#xe98b;" glyph-name="magic-solid" data-tags="magic-solid" d="M551.874 97.944l96.038 201.798c2.57 5.403 6.922 9.755 12.325 12.325l201.797 96.038c7.747 3.69 13.179 10.957 14.523 19.43s-1.571 17.064-7.797 22.97l-162.262 153.714c-4.33 4.106-7.118 9.576-7.898 15.493l-28.99 221.587c-1.107 8.508-6.334 15.925-13.976 19.828s-16.714 3.791-24.256-0.299l-196.331-106.844c-5.25-2.842-11.317-3.79-17.184-2.691l-219.722 40.923c-8.443 1.578-17.122-1.109-23.195-7.182s-8.76-14.752-7.182-23.195l40.923-219.722c1.099-5.867 0.15-11.934-2.691-17.186l-106.844-196.33c-4.089-7.536-4.206-16.602-0.313-24.242 3.893-7.638 11.298-12.872 19.798-13.99l221.63-28.99c5.917-0.779 11.386-3.568 15.493-7.898l153.714-162.264c5.906-6.224 14.496-9.139 22.97-7.795s15.741 6.776 19.43 14.522zM743.864 277.47l-61.363-61.363 184.091-184.136 61.408 61.408-184.136 184.091z" />
<glyph unicode="&#xe98c;" glyph-name="magnet-solid" data-tags="magnet-solid" d="M546.24 726.24l64-9.92-1.92-13.28 2.080 13.28c7.36-1.12 12.32-8 11.2-15.2-0.48-3.040-1.92-5.6-3.84-7.52l-193.92-193.92c-5.28-5.28-13.76-5.28-18.88 0-4.16 4.16-4.96 10.4-2.56 15.36l65.76 158.24-67.84 5.28c-7.36 0.48-12.8 7.040-12.32 14.4 0.32 3.36 1.76 6.4 4 8.48l177.6 177.6c5.28 5.28 13.76 5.28 18.88 0 3.84-3.84 4.8-9.6 3.040-14.4l-45.28-138.4zM320.182 864.836c0 8.44-7.56 15.162-16.184 15.162l-160.22 0.619c-8.44 0-15.412-6.788-15.412-15.412 0-61.096-0.183-105.028-0.367-145.209l191.998 0.002v147.874l0.184-3.036zM895.634 863.995c0 8.44-6.789 15.412-15.413 15.412h-160.221c-8.44 0-15.411-6.788-15.411-15.412l-0.589-144.62h192c-0.184 41.098-0.366 84.625-0.366 144.62zM895.971 655.997l-192.038-0.002v-226.853c0-84.022-46.979-134.24-115.493-159.206-26.403-9.602-48.418-13.635-76.547-13.955-28.13-0.16-62.376 3.394-88.090 12.835-63.336 23.366-103.95 70.944-103.95 159.446v227.734c-63.883 2.309-127.894 0.003-191.809 0 0 0-0.001-177.832-0.001-259.451 0-90.744 48.501-169.314 112.872-230.128 63.854-60.336 176.043-102.435 273.203-102.435s204.739 42.259 268.594 102.435c64.026 60.654 112.877 141.946 112.877 232.528 0 85.622 0.382 257.051 0.382 257.051z" />
<glyph unicode="&#xe98d;" glyph-name="mail-add-solid" data-tags="mail-add-solid" d="M938.666 390.784c-93.026 32.952-196.709 9.494-266.494-60.29-69.784-69.784-93.24-173.467-60.29-266.494h-483.882c-23.564 0-42.667 19.102-42.667 42.667v682.666c0 23.565 19.103 42.667 42.667 42.667h768c23.563 0 42.666-19.103 42.666-42.667v-398.549zM514.558 461.514l-273.579 232.32-55.253-65.024 329.387-279.68 323.456 279.893-55.808 64.555-268.203-232.064zM1023.997 192h-128v128h-85.333v-128h-128v-85.333h128v-128h85.333v128h128v85.333z" />
<glyph unicode="&#xe98e;" glyph-name="mail-check-solid" data-tags="mail-check-solid" d="M938.667 390.784c-93.027 32.952-196.71 9.494-266.494-60.29s-93.242-173.467-60.29-266.494h-483.883c-23.564 0-42.667 19.102-42.667 42.667v682.666c0 23.565 19.103 42.667 42.667 42.667h767.999c23.565 0 42.667-19.103 42.667-42.667v-398.549zM514.56 461.514l-273.579 232.32-55.253-65.024 329.386-279.68 323.456 279.893-55.808 64.555-268.202-232.064zM659.79 172.214l150.869-150.87 211.2 211.2-60.331 60.331-150.869-150.869-90.496 90.538-60.373-60.33z" />
<glyph unicode="&#xe98f;" glyph-name="mail-close-solid" data-tags="mail-close-solid" d="M938.666 390.784c-93.026 32.952-196.709 9.494-266.494-60.29-69.784-69.784-93.24-173.467-60.29-266.494h-483.882c-23.564 0-42.667 19.102-42.667 42.667v682.666c0 23.565 19.103 42.667 42.667 42.667h768c23.563 0 42.666-19.103 42.666-42.667v-398.549zM514.558 461.514l-273.579 232.32-55.253-65.024 329.387-279.68 323.456 279.893-55.808 64.555-268.203-232.064zM1004.237 58.843l-90.581 90.496 90.538 90.496-60.373 60.373-90.496-90.538-90.496 90.538-60.373-60.373 90.538-90.496-90.538-90.496 60.373-60.373 90.496 90.538 90.539-90.538 60.373 60.373z" />
<glyph unicode="&#xe990;" glyph-name="mail-download-solid" data-tags="mail-download-solid" d="M938.667 413.739c-100.354 57.99-227.149 41.322-309.106-40.634s-98.624-208.752-40.634-309.106h-460.928c-23.564 0-42.667 19.102-42.667 42.667v682.666c0 23.565 19.103 42.667 42.667 42.667h768c23.565 0 42.667-19.103 42.667-42.667v-375.594zM514.558 461.514l-273.578 232.32-55.254-65.024 329.387-279.68 323.456 279.893-55.808 64.555-268.203-232.064zM981.331 192h-128v170.667h-85.334v-170.667h-128l170.667-170.667 170.667 170.667z" />
<glyph unicode="&#xe991;" glyph-name="mail-forbid-solid" data-tags="mail-forbid-solid" d="M746.722 453.282c-117.76 0-213.28-95.52-213.28-213.28s95.52-213.28 213.28-213.28c117.76 0 213.28 95.52 213.28 213.28s-95.52 213.28-213.28 213.28zM631.202 184.802c-23.36 48.96-13.44 107.36 24.96 145.76s96.8 48.32 145.76 24.96l-170.72-170.72zM837.282 149.442c-38.4-38.4-96.8-48.32-145.76-24.96l170.72 170.72c23.36-48.96 13.28-107.36-24.96-145.76zM493.28 509.6l268.16 232 55.84-64.48-187.2-162.080c35.84 15.2 75.2 23.68 116.64 23.68 60.96 0.16 120.64-18.56 170.72-53.6v352.16c0 23.52-19.040 42.72-42.72 42.72h-768c-23.68 0-42.72-19.040-42.72-42.72v-682.72c0-23.52 19.040-42.56 42.72-42.56h370.080c-18.4 38.88-28.8 82.24-28.8 128-0.16 55.84 15.52 110.4 44.96 157.76l-328.64 279.040 55.2 64.96 273.76-232.16z" />
<glyph unicode="&#xe992;" glyph-name="mail-inbox-solid" data-tags="mail-inbox-solid" d="M896 832h-768c-23.564 0-42.667-19.103-42.667-42.667v-682.666c0-23.565 19.102-42.667 42.667-42.667h768c23.565 0 42.667 19.102 42.667 42.667v682.666c0 23.565-19.102 42.667-42.667 42.667zM512.002 320c-70.693 0-128 57.307-128 128h-213.333v298.667h682.666v-298.667h-213.333c0-70.693-57.307-128-128-128z" />
<glyph unicode="&#xe993;" glyph-name="mail-lock-solid" data-tags="mail-lock-solid" d="M729.6 476.8c68.32 25.92 145.28 15.040 203.68-28.8v341.28c0 23.52-19.040 42.72-42.72 42.72h-768c-23.52 0-42.56-19.040-42.56-42.72v-682.72c0-23.52 19.040-42.56 42.72-42.56h426.72v256h46.88c14.56 71.68 64.96 130.72 133.28 156.8zM509.76 349.12l-329.44 279.68 55.2 64.96 273.6-232.32 268.16 232 55.84-64.48-323.36-279.84zM933.28 234.722v42.72c0 70.72-57.28 128-128 128s-128-57.28-128-128v-42.72h-42.72v-213.28h341.44v213.28h-42.72zM848 234.722h-85.28v42.72c0 23.52 19.040 42.72 42.72 42.72 23.52 0 42.72-19.040 42.72-42.72v-42.72h-0.16z" />
<glyph unicode="&#xe994;" glyph-name="mail-open-solid" data-tags="mail-open-solid" d="M490.24 904.088l-394.538-236.544c-6.433-3.856-10.369-10.805-10.368-18.304v-542.592c0-23.565 19.103-42.667 42.667-42.667h767.999c23.565 0 42.667 19.102 42.667 42.667v542.549c0.002 7.499-3.934 14.45-10.368 18.304l-394.155 236.587c-13.512 8.107-30.392 8.107-43.904 0zM514.602 376.176l268.16 232.064 55.808-64.555-323.456-279.893-329.386 279.68 55.21 65.024 273.664-232.32z" />
<glyph unicode="&#xe995;" glyph-name="mail-search-solid" data-tags="mail-search-solid" d="M938.667 413.739c-100.354 57.99-227.149 41.322-309.106-40.634s-98.624-208.752-40.634-309.106h-460.928c-23.564 0-42.667 19.102-42.667 42.667v682.666c0 23.565 19.103 42.667 42.667 42.667h768c23.565 0 42.667-19.103 42.667-42.667v-375.594zM514.558 461.514l-273.578 232.32-55.254-65.024 329.387-279.68 323.456 279.893-55.808 64.555-268.203-232.064zM639.997 198.096c0-90.891 71.635-164.573 160-164.573 35.939 0 69.11 12.187 95.821 32.763l128.179-87.619v128l-73.104 36.571c5.896 17.158 9.104 35.622 9.104 54.858 0 90.89-71.634 164.571-160 164.571s-160-73.682-160-164.571z" />
<glyph unicode="&#xe996;" glyph-name="mail-send-solid" data-tags="mail-send-solid" d="M85.333 725.333v64.299c0.163 23.315 19.011 42.182 42.325 42.368h768.682c23.382 0 42.326-18.987 42.326-42.368v-683.264c-0.163-23.315-19.011-42.182-42.326-42.368h-768.682c-23.383 0.024-42.325 18.986-42.325 42.368v42.965h768v499.2l-341.333-307.2-426.667 384zM0 533.333h213.333v-85.333h-213.333v85.333zM341.333 320h-341.333v-85.333h341.333v85.333z" />
<glyph unicode="&#xe997;" glyph-name="mail-settings-solid" data-tags="mail-settings-solid" d="M672.171 330.494c69.786 69.784 173.469 93.242 266.494 60.29v398.549c0 23.565-19.102 42.667-42.666 42.667h-768c-23.564 0-42.667-19.103-42.667-42.667v-682.666c0-23.565 19.103-42.667 42.667-42.667h483.882c-32.95 93.027-9.494 196.71 60.29 266.494zM240.979 693.834l273.622-232.32 268.16 232.064 55.808-64.555-323.456-279.893-329.387 279.68 55.253 65.024zM727.469 125.952c-2.854 15.458-2.854 31.306 0 46.763l-43.264 25.002 42.667 73.899 43.264-25.003c11.861 10.155 25.557 18.134 40.533 23.467v49.92h85.334v-49.92c14.976-5.333 28.672-13.312 40.533-23.467l43.264 25.003 42.667-73.899-43.264-25.002c2.854-15.458 2.854-31.306 0-46.763l43.264-25.003-42.667-73.898-43.264 25.002c-11.95-10.251-25.693-18.206-40.533-23.466v-49.92h-85.334v49.92c-14.84 5.259-28.582 13.214-40.533 23.466l-43.264-25.002-42.667 73.898 43.264 25.003zM895.997 149.333c0-23.563-19.102-42.666-42.666-42.666s-42.667 19.102-42.667 42.666c0 23.565 19.102 42.667 42.667 42.667 23.563 0 42.666-19.102 42.666-42.667z" />
<glyph unicode="&#xe998;" glyph-name="mail-solid" data-tags="mail-solid" d="M886.4 791.653h-748.8c-22.975 0-41.6-18.226-41.6-40.709v-35.685l416-255.864 416 255.864v35.685c0 22.483-18.626 40.709-41.6 40.709zM928 618.208l-405.053-264.688-426.947 264.688v-473.152c0-22.483 18.625-40.707 41.6-40.707h748.8c22.974 0 41.6 18.224 41.6 40.707v473.152z" />
<glyph unicode="&#xe999;" glyph-name="mail-star-solid" data-tags="mail-star-solid" d="M938.667 360.789c-89.803 41.205-195.301 27.053-271.069-36.362s-108.28-164.771-83.534-260.427h-456.064c-23.564 0-42.667 19.102-42.667 42.667v682.666c0 23.565 19.102 42.667 42.667 42.667h768c23.565 0 42.667-19.103 42.667-42.667v-428.544zM514.563 461.514l-273.579 232.32-55.253-65.024 329.386-279.68 323.456 279.893-55.808 64.555-268.202-232.064zM719.147-27.307l112.853 59.307 112.853-59.349-21.546 125.696 91.306 88.96-126.165 18.346-56.448 114.347-56.448-114.304-126.165-18.347 91.306-89.002-21.546-125.654z" />
<glyph unicode="&#xe99a;" glyph-name="mail-unread-solid" data-tags="mail-unread-solid" d="M785.146 725.339c22.866-39.603 65.122-64 110.851-64 70.693 0 128 57.309 128 128 0 70.693-57.307 128.001-128 128.001-45.73 0-87.986-24.397-110.851-64s-22.864-88.397 0-128.001zM938.664 580.274c-46.142-9.352-94.078-3.25-136.405 17.365l-287.147-248.491-329.387 279.68 55.211 65.024 273.664-232.32 218.965 189.526c-32.918 38.547-50.971 87.592-50.901 138.282 0 14.593 1.451 28.886 4.267 42.667h-558.934c-23.564 0-42.667-19.103-42.667-42.667v-682.666c0-23.565 19.103-42.667 42.667-42.667h768c23.565 0 42.667 19.102 42.667 42.667v473.6z" />
<glyph unicode="&#xe99b;" glyph-name="male-solid" data-tags="male-solid" d="M512.002 31.99c-229.752 0-416.002 186.251-416.002 416.002 0 46.17 7.521 90.582 21.405 132.080 3.859 11.536 2.005 10.334-3.23 6.944-4.248-2.75-10.722-6.944-18.176-6.944 29.936 57.288 61.214 94.582 78.907 115.68 5.112 6.096 9.090 10.838 11.573 14.322 104.002 105.040 185.72 153.921 325.522 153.921 1.965 0 3.914 0.001 5.843 0.003 54.238 0.039 95.141 0.068 127.277-31.204 114.402 8.32 184.851-84.24 214.242-135.2 38.48-57.2 68.64-145.381 68.64-249.602 0-229.75-186.25-416.002-416.002-416.002zM512 112c185.568 0 336 149.909 336 334.829 0 34.251 0 94.362-43.782 163.357-72.29 19.278-114.035 36.526-162.909 125.814-5.093-4.946-10.019-9.808-14.866-14.59-70.709-69.794-124.336-122.725-432.115-172.102-0.514-1.126-1.022-2.232-1.525-3.323-9.459-20.563-16.803-36.531-16.803-99.155 0-184.92 150.432-334.829 336-334.829zM387.822 480.499c-10.234 0-20.237-3.034-28.746-8.718-8.509-5.686-15.141-13.766-19.056-23.221-3.917-9.454-4.941-19.858-2.944-29.894 1.995-10.037 6.923-19.256 14.16-26.491 7.235-7.237 16.454-12.165 26.491-14.16 10.037-1.997 20.44-0.973 29.894 2.944 9.454 3.915 17.534 10.547 23.221 19.056 5.685 8.509 8.72 18.512 8.72 28.746-0.005 13.722-5.456 26.88-15.158 36.582s-22.861 15.154-36.582 15.157zM636.176 480.499c-10.234 0-20.237-3.034-28.746-8.718-8.509-5.686-15.141-13.766-19.058-23.221-3.915-9.454-4.941-19.858-2.944-29.894s6.925-19.256 14.16-26.491c7.237-7.237 16.456-12.165 26.493-14.16 10.037-1.997 20.44-0.973 29.894 2.944 9.454 3.915 17.534 10.547 23.219 19.056s8.72 18.512 8.72 28.746c-0.003 13.722-5.456 26.88-15.158 36.582s-22.861 15.154-36.581 15.157z" />
<glyph unicode="&#xe99c;" glyph-name="manage-solid" data-tags="manage-solid" d="M219.64 32c-24.453-0.002-48.357 7.248-68.69 20.834-20.333 13.584-36.18 32.894-45.538 55.486s-11.806 47.453-7.035 71.437c4.771 23.984 16.547 46.013 33.839 63.304l255.421 255.387-3.248 10.301c-14.914 50.909-14.912 105.029 0.006 155.936 14.918 50.909 44.125 96.47 84.157 131.277s89.21 57.402 141.694 65.102c52.486 7.7 106.080 0.181 154.422-21.662 5.834-2.645 10.938-6.664 14.877-11.715s6.594-10.98 7.739-17.281c1.146-6.301 0.746-12.787-1.165-18.9-1.912-6.112-46.045-38.045-55.659-38.045h-144.23l-76.328-154.243 143.635-143.834 163.461 88.094v142.675c4.544 4.522 32.379 34.2 38.504 36.094s12.618 2.272 18.92 1.102c6.304-1.168 12.229-3.85 17.269-7.813 5.038-3.963 9.040-9.091 11.661-14.941 22.248-49.181 29.658-103.787 21.32-157.118-8.336-53.331-32.058-103.069-68.253-143.114s-83.291-68.654-135.51-82.32c-52.219-13.664-107.291-11.79-158.462 5.392l-255.381-255.23c-11.454-11.517-25.078-20.646-40.085-26.862-15.008-6.214-31.098-9.39-47.341-9.344zM760 193.632c-22.994 0-41.632-18.638-41.632-41.632s18.638-41.632 41.632-41.632c22.994 0 41.632 18.638 41.632 41.632s-18.638 41.632-41.632 41.632zM640 152c0 66.274 53.726 120 120 120s120-53.726 120-120c0-66.274-53.726-120-120-120s-120 53.726-120 120z" />
<glyph unicode="&#xe99d;" glyph-name="map-pin-land-solid" data-tags="map-pin-land-solid" d="M517.92 154.413l207.838 207.838c114.779 114.786 114.776 300.883-0.006 415.664s-300.88 114.78-415.662 0c-114.782-114.781-114.786-300.878-0.008-415.664l207.838-207.838zM807.624 104.374h-578.992v-72.374h578.992v72.374z" />
<glyph unicode="&#xe99e;" glyph-name="map-pin-solid" data-tags="map-pin-solid" d="M512 31.998l-248.902 243.69c-137.464 134.586-137.463 352.79 0.002 487.374s360.338 134.584 497.802 0c137.464-134.584 137.466-352.789 0.002-487.374l-248.902-243.69zM511.909 417.296c57.635 0 104.358 45.744 104.358 102.173 0 56.427-46.723 102.171-104.358 102.171-57.637 0-104.36-45.744-104.36-102.171 0-56.429 46.723-102.173 104.36-102.173zM355.558 519.379c0-84.592 70.043-153.166 156.445-153.166s156.445 68.574 156.445 153.166c0 84.592-70.043 153.168-156.445 153.168s-156.445-68.576-156.445-153.168z" />
<glyph unicode="&#xe99f;" glyph-name="measurement-solid" data-tags="measurement-solid" d="M915.198 664.958l-186.080 186.080c-17.12 17.12-44.96 17.12-62.080 0l-39.68-39.68 77.6-77.6-99.68-99.68-77.6 77.6-77.44-77.44 77.6-77.6-113.6-115.040-78.24 78.24-83.2-83.2 77.6-77.6-93.76-93.44-77.599 77.6-50.080-50.4c-17.12-17.12-17.12-44.96 0-62.080l185.919-185.92c17.12-17.12 44.96-17.12 62.080 0l558.24 558.24c17.12 17.12 17.12 44.8 0 61.92zM232.96 540.958l186.080 186.080-124.16 124.161c-17.12 17.12-44.96 17.12-62.080 0l-124-124.161c-8.16-8.16-12.8-19.36-12.8-31.040s4.64-22.88 12.8-31.040l124.16-124zM605.118 168.798l115.68-115.68h185.92v186.24l-115.52 115.52-186.080-186.080z" />
<glyph unicode="&#xe9a0;" glyph-name="message-solid" data-tags="message-solid" d="M512 864c-229.76 0-416-172.96-416-386.24 0-105.28 45.28-200.64 118.88-270.4 13.92-13.12 5.28-55.040-2.88-94.56-8.64-41.76-16.64-80.8 2.88-80.8 15.52 0 49.44 18.080 84 36.48 39.52 21.12 80.16 42.72 95.52 38.56 37.28-10.24 76.8-15.68 117.6-15.68 229.76 0 416 172.96 416 386.24 0 213.44-186.24 386.4-416 386.4zM387.52 436h-83.2v83.2h83.2v-83.2zM553.76 436h-83.2v83.2h83.2v-83.2zM720.32 436h-83.36v83.2h83.36v-83.2z" />
<glyph unicode="&#xe9a1;" glyph-name="mic-off-solid" data-tags="mic-off-solid" d="M327.896 811.924l374.699-374.614c15.027 29.782 22.834 62.685 22.784 96.043l-0.043 170.667c0.058 96.34-64.462 180.765-157.437 206.007-92.976 25.243-191.331-14.961-240.003-98.104zM700.803 198.888c-45.010-25.474-94.728-41.528-146.134-47.19v-173.013h-85.333v173.013c-178.285 19.984-319.003 160.701-338.987 338.987h85.974c13.486-93.384 70.296-174.909 153.234-219.898 82.936-44.99 182.253-48.155 267.886-8.539l-66.176 66.133c-64.429-18.632-133.869-5.88-187.474 34.427s-85.134 103.475-85.125 170.544v67.669l-239.231 239.189 60.373 60.373 844.757-844.799-60.373-60.331-203.392 203.435zM826.672 313.173l-61.568 61.526c21.717 34.56 36.523 73.813 42.539 115.968h86.016c-7.043-63.858-30.083-124.906-66.987-177.494z" />
<glyph unicode="&#xe9a2;" glyph-name="mic-solid" data-tags="mic-solid" d="M662.85 854.856c-40.008 40.008-94.27 62.484-150.85 62.484-117.821 0-213.333-95.513-213.333-213.333v-170.667c0-117.821 95.512-213.333 213.333-213.333s213.333 95.512 213.333 213.333v170.667c0 56.579-22.475 110.842-62.483 150.85zM216.317 490.674h-85.973c19.984-178.286 160.701-319.003 338.988-338.987v-173.013h85.333v173.013c178.269 20.003 318.963 160.715 338.944 338.987h-86.016c-21.37-146.829-147.262-255.725-295.637-255.725-148.376 0-274.269 108.896-295.638 255.725z" />
<glyph unicode="&#xe9a3;" glyph-name="minus-solid" data-tags="minus-solid" d="M848 376c40 0 72 32 72 72s-32 72-72 72h-688c-40 0-72-32-72-72s32-72 72-72h688z" />
<glyph unicode="&#xe9a4;" glyph-name="money-box-solid" data-tags="money-box-solid" d="M928 73.272c-0.202-22.733-20.642-41.109-45.899-41.267h-740.199c-25.331 0-45.873 18.469-45.898 41.267v749.461c0.201 22.732 20.641 41.109 45.898 41.267h740.199c25.33 0 45.899-18.47 45.899-41.267v-749.461zM591.243 368.754h-217.904v-79.237h99.048v-79.238h79.237v79.238h39.619c54.702 0 99.048 44.344 99.048 99.046s-44.346 99.048-99.048 99.048h-158.475c-10.941 0-19.81 8.869-19.81 19.81 0 10.939 8.869 19.81 19.81 19.81h217.904v79.237h-99.048v79.238h-79.237v-79.238h-39.619c-54.702 0-99.046-44.344-99.046-99.046s44.344-99.048 99.046-99.048h158.475c10.941 0 19.81-8.869 19.81-19.81 0-10.939-8.869-19.81-19.81-19.81z" />
<glyph unicode="&#xe9a5;" glyph-name="money-circle-solid" data-tags="money-circle-solid" d="M96 447.998c0 229.757 186.245 416.002 416.002 416.002 229.758 0 416.003-186.245 416.003-416.002s-186.245-416.003-416.003-416.003c-229.757 0-416.002 186.245-416.002 416.003zM595.195 364.806h-228.802v-83.2h104v-83.202h83.202v83.202h41.6c57.438 0 104 46.562 104 104s-46.562 104.002-104 104.002h-166.402c-11.488 0-20.8 9.312-20.8 20.8 0 11.486 9.312 20.8 20.8 20.8h228.802v83.2h-104v83.2h-83.202v-83.2h-41.6c-57.438 0-104-46.563-104-104s46.562-104.002 104-104.002h166.402c11.488 0 20.8-9.312 20.8-20.8s-9.312-20.8-20.8-20.8z" />
<glyph unicode="&#xe9a6;" glyph-name="monitor-solid" data-tags="monitor-solid" d="M322.909 155.134v-75.134l189.091 37.053 189.091-37.053v75.134l-127.053 27.79v37.566h301.696c41.277 0 52.266 8.816 52.266 49.661v461.872c0 40.843-10.989 51.976-52.266 51.976h-727.469c-41.276 0-52.266-11.133-52.266-51.976v-461.872c0-40.845 10.989-49.661 52.266-49.661h297.021v-37.566l-122.378-27.79z" />
<glyph unicode="&#xe9a7;" glyph-name="moon-solid" data-tags="moon-solid" d="M485.544 873.844c-85.613-79.773-120.853-199.917-91.899-313.296s117.49-201.914 230.869-230.867c113.379-28.955 233.522 6.285 313.296 91.898-13.568-223.36-198.997-400.256-425.77-400.256-235.691 0-426.71 191.018-426.71 426.666 0 226.774 176.896 412.203 400.214 425.856z" />
<glyph unicode="&#xe9a8;" glyph-name="more-h-solid" data-tags="more-h-solid" d="M256 544c53.019 0 96-42.981 96-96s-42.981-96-96-96c-53.019 0-96 42.981-96 96s42.981 96 96 96zM512 544c53.019 0 96-42.981 96-96s-42.981-96-96-96c-53.019 0-96 42.981-96 96s42.981 96 96 96zM864 448c0 53.019-42.981 96-96 96s-96-42.981-96-96c0-53.019 42.981-96 96-96s96 42.981 96 96z" />
<glyph unicode="&#xe9a9;" glyph-name="more-v-solid" data-tags="more-v-solid" d="M608 704c0-53.019-42.981-96-96-96s-96 42.981-96 96c0 53.019 42.981 96 96 96s96-42.981 96-96zM608 448c0-53.019-42.981-96-96-96s-96 42.981-96 96c0 53.019 42.981 96 96 96s96-42.981 96-96zM512 96c53.019 0 96 42.981 96 96s-42.981 96-96 96c-53.019 0-96-42.981-96-96s42.981-96 96-96z" />
<glyph unicode="&#xe9aa;" glyph-name="mouse-solid" data-tags="mouse-solid" d="M771.2 726.24c-18.4 38.4-46.88 69.76-81.6 90.080-35.36 20.64-74.24 31.68-146.72 31.68h-61.92c-72.48 0-111.36-11.040-146.56-31.84-34.72-20.16-63.2-51.52-81.6-89.92-18.72-38.88-28.8-81.6-28.8-161.6v-226.88c0-80 10.080-122.72 28.8-161.6 18.4-38.4 46.88-69.76 81.6-90.080 35.2-20.8 74.080-31.84 146.56-31.84h61.92c72.48 0 111.36 11.040 146.56 31.84 34.72 20.32 63.2 51.68 81.6 90.080 18.88 38.88 28.8 81.6 28.8 161.6v226.88c0.16 79.84-9.92 122.72-28.64 161.6zM548 489.44c0 0 0-8.8-36-8.8s-36 8.8-36 8.8v180.48c0 0 0 10.24 36 10.24s36-10.24 36-10.24v-180.48z" />
<glyph unicode="&#xe9ab;" glyph-name="newspaper-solid" data-tags="newspaper-solid" d="M213.333 21.333c-70.692 0-127.999 57.307-127.999 128v682.667c0 23.564 19.102 42.667 42.667 42.667h597.333c23.565 0 42.667-19.103 42.667-42.667v-298.667h170.667v-384c0-70.693-57.309-128-128-128h-597.334zM768.002 149.328c0-23.565 19.102-42.667 42.667-42.667 23.563 0 42.666 19.102 42.666 42.667v298.666h-85.333v-298.666zM213.334 703.994v-256h256v256h-256zM213.334 319.994h426.667v85.334h-426.667v-85.334zM213.334 277.328v-85.334h426.667v85.334h-426.667zM384.002 618.661v-85.333h-85.333v85.333h85.333z" />
<glyph unicode="&#xe9ac;" glyph-name="notification-solid" data-tags="notification-solid" d="M864 238.802v-55.165c0 0-214.226-23.637-352-23.637s-352 23.637-352 23.637v55.165l95.877 58.211v211.802c0 156.589 69.221 234.44 191.282 263.245-10.035 41.498 9.262 91.941 64.842 91.941s73.333-50.443 63.194-91.941c122.486-28.805 196.174-107.832 196.174-263.245v-211.802l92.632-58.211zM504 32c57.2 0 104 43.2 104 96h-208c0-52.8 46.8-96 104-96z" />
<glyph unicode="&#xe9ad;" glyph-name="owl-solid" data-tags="owl-solid" d="M688.128 433.67c-102.928 0-186.368 83.44-186.368 186.368s83.44 186.368 186.368 186.368h186.368v-186.368c0-102.928-83.438-186.368-186.368-186.368zM687.998 544c44.184 0 80 35.818 80 80s-35.816 80-80 80c-44.182 0-80-35.818-80-80s35.818-80 80-80zM204.797 345.594h114.69l192.51-162.816 193.538 162.816h114.688l-308.226-261.912-307.2 261.912zM337.92 433.654c-102.928 0-186.368 83.44-186.368 186.368v186.368h186.368c102.928 0 186.368-83.44 186.368-186.368l98.304-174.901-108.544-110.795-111.616 110.795c-20.102-7.416-41.834-11.467-64.512-11.467zM335.998 544c44.184 0 80 35.818 80 80s-35.816 80-80 80c-44.182 0-80-35.818-80-80s35.818-80 80-80z" />
<glyph unicode="&#xe9ae;" glyph-name="paintbucket-solid" data-tags="paintbucket-solid" d="M177.032 700.187c0 83.403 67.611 147.813 151.016 147.813 56.605 0 105.936-27.94 131.794-74.027 29.182 16.723 67.034 11.032 90.213-14.542 13.064-14.413 30.95-33.6 51.301-53.95l176.048-176.048c22.294-22.294 42.216-42.627 56.379-57.192 27.512-28.294 26.837-73.162-0.79-100.789l-287.144-287.144c-58.976-58.976-154.594-58.976-213.57 0l-176.047 176.048c-58.975 58.974-58.975 154.594 0 213.568l20.8 20.8v205.464zM257.032 574.723l140.448 140.448c-6.878 32.026-35.352 52.829-69.432 52.829-39.221 0-71.016-28.592-71.016-67.813v-125.464zM495.722 700.277l-282.922-282.922c-17.837-17.837-24.202-42.8-19.096-65.723h506.331l70.691 70.691c-13.398 13.741-30.768 31.418-49.891 50.539l-176.048 176.048c-19.021 19.022-35.933 37.008-49.066 51.366zM883.882 218.056l-67.882 73.304-67.882-73.304c-40.458-43.69-36.766-105.382 7.912-143.981 35.061-30.288 84.878-30.288 119.939 0 44.678 38.598 48.37 100.291 7.912 143.981z" />
<glyph unicode="&#xe9af;" glyph-name="palette-solid" data-tags="palette-solid" d="M506.72 880c-235.68 0-426.72-191.040-426.72-426.72s191.040-426.72 426.72-426.72c38.4 0 71.2 31.68 71.2 71.2 0 18.4-7.2 35.040-18.56 47.84-10.88 12.32-18.080 28.96-18.080 46.88 0 39.36 31.84 71.2 71.2 71.2h83.84c130.88 0 236.96 106.080 237.12 236.96-0.16 209.6-191.2 379.36-426.72 379.36zM314.72 453.28c-35.36 0-64 28.64-64 64s28.64 64 64 64c35.36 0 64-28.64 64-64s-28.64-64-64-64zM506.72 581.28c-35.36 0-64 28.64-64 64s28.64 64 64 64c35.36 0 64-28.64 64-64s-28.64-64-64-64zM698.72 453.28c-35.36 0-64 28.64-64 64s28.64 64 64 64c35.36 0 64-28.64 64-64s-28.64-64-64-64z" />
<glyph unicode="&#xe9b0;" glyph-name="participants-solid" data-tags="participants-solid" d="M512.003 400c70.699 0 128 57.301 128 128s-57.301 128-128 128c-70.698 0-128-57.301-128-128s57.302-128 128-128zM729.086 232.235v20.506c0 77.92-97.194 110.728-217.088 110.728s-217.088-32.808-217.088-110.728v-20.506c27.392-8.437 106.71-22.538 217.088-22.538s189.696 14.101 217.088 22.538zM258.542 490.203c44.904 0 81.298 36.394 81.298 81.298 0 44.902-36.394 81.296-81.298 81.296-44.902 0-81.296-36.394-81.296-81.296 0-44.904 36.394-81.298 81.296-81.298zM286.794 335.998c34.99 7.45 84.438 62.061 73.125 96.002-8 24-32 33.64-79.661 33.64-84.091 0-152.261-23.011-152.261-77.662v-36.173c19.212-5.917 97.844-28.786 158.797-15.806zM764.483 494.192c-43.802 0-79.302 35.501-79.302 79.302s35.501 79.302 79.302 79.302c43.802 0 79.302-35.501 79.302-79.302s-35.501-79.302-79.302-79.302zM729.12 335.998c-34.99 7.45-84.438 62.061-73.123 96.002 8 24 32 33.642 79.661 33.642 84.091 0 152.259-23.011 152.259-77.662l0.002-36.174c-19.213-5.917-97.843-28.784-158.798-15.806z" />
<glyph unicode="&#xe9b1;" glyph-name="pdf-solid" data-tags="pdf-solid" d="M144 822.733v-749.466c0.176-22.731 18.086-41.109 40.219-41.267h655.56c10.742 0.077 21.014 4.534 28.557 12.39s11.739 18.467 11.662 29.501v582.109l-209.458 208h-486.078c-22.357 0-40.462-18.47-40.462-41.267zM625.536 600.586v145.774l148.014-145.774h-148.014zM480.573 637.022c53.73 15.618 70.965-6.246 67.128-63.478-2.157-32.173-5.288-43.77-16.442-80.835 11.838-22.274 27.029-42.616 43.112-61.818 43.854 1.475 107.901-5.973 128.227-52.93 20.374-46.774-24.853-88.448-70.318-74.475-32.624 10.027-59.854 37.757-82.632 62.363-30.107-4.528-59.882-11.726-88.675-21.846-22.152-33.89-52.949-80.706-95.718-88.278-32.526-5.786-52.131 24.142-45.387 54.453 10.136 46.408 61.677 69.592 101.104 85.331 17.858 29.464 33.64 60.574 45.069 93.286-1.574 4.155-2.632 7.776-3.728 11.526-1.018 3.482-2.069 7.075-3.595 11.315-6.53 18.138-24.747 111.84 21.856 125.386z" />
<glyph unicode="&#xe9b2;" glyph-name="percent-solid" data-tags="percent-solid" d="M257.778 540.445c-57.797 0-111.205 30.835-140.104 80.888s-28.899 111.725 0 161.778c28.899 50.055 82.307 80.89 140.104 80.89 89.347 0 161.778-72.43 161.778-161.778s-72.43-161.778-161.778-161.778zM766.222 32.006c-89.347 0-161.778 72.43-161.778 161.778s72.43 161.778 161.778 161.778c89.347 0 161.778-72.43 161.778-161.778s-72.43-161.778-161.778-161.778zM924.514 754.534l-105.984 105.983-718.986-719.032 105.983-105.984 718.987 719.034z" />
</font>
</defs>
</svg>
